solid ascii
  facet normal -0.000000e+000 1.000000e+000 0.000000e+000
    outer loop
      vertex   -9.950000e+001 2.140000e+001 3.200000e+001
      vertex   -9.950000e+001 2.140000e+001 3.400000e+001
      vertex   -9.660000e+001 2.140000e+001 3.200000e+001
    endloop
  endfacet
  facet normal 0.000000e+000 1.000000e+000 -0.000000e+000
    outer loop
      vertex   -9.660000e+001 2.140000e+001 3.200000e+001
      vertex   -9.950000e+001 2.140000e+001 3.400000e+001
      vertex   -9.660000e+001 2.140000e+001 3.400000e+001
    endloop
  endfacet
  facet normal 8.672008e-008 0.000000e+000 -1.000000e+000
    outer loop
      vertex   -9.950000e+001 1.025000e+001 3.200000e+001
      vertex   -9.950000e+001 2.140000e+001 3.200000e+001
      vertex   -9.675071e+001 1.400000e+001 3.200000e+001
    endloop
  endfacet
  facet normal 0.000000e+000 6.357829e-008 -1.000000e+000
    outer loop
      vertex   -9.655071e+001 1.025000e+001 3.200000e+001
      vertex   -9.950000e+001 1.025000e+001 3.200000e+001
      vertex   -9.675071e+001 1.400000e+001 3.200000e+001
    endloop
  endfacet
  facet normal 8.221331e-008 -1.674381e-009 -1.000000e+000
    outer loop
      vertex   -9.950000e+001 2.140000e+001 3.200000e+001
      vertex   -9.660000e+001 2.140000e+001 3.200000e+001
      vertex   -9.675071e+001 1.400000e+001 3.200000e+001
    endloop
  endfacet
  facet normal 0.000000e+000 0.000000e+000 -1.000000e+000
    outer loop
      vertex   -9.675071e+001 1.400000e+001 3.200000e+001
      vertex   -9.660000e+001 2.140000e+001 3.200000e+001
      vertex   -9.360000e+001 1.840000e+001 3.200000e+001
    endloop
  endfacet
  facet normal 0.000000e+000 0.000000e+000 -1.000000e+000
    outer loop
      vertex   -9.360000e+001 1.400000e+001 3.200000e+001
      vertex   -9.675071e+001 1.400000e+001 3.200000e+001
      vertex   -9.360000e+001 1.840000e+001 3.200000e+001
    endloop
  endfacet
  facet normal 0.000000e+000 0.000000e+000 -1.000000e+000
    outer loop
      vertex   -1.084000e+002 1.840000e+001 3.200000e+001
      vertex   -1.054000e+002 2.140000e+001 3.200000e+001
      vertex   -1.052493e+002 1.400000e+001 3.200000e+001
    endloop
  endfacet
  facet normal 0.000000e+000 0.000000e+000 -1.000000e+000
    outer loop
      vertex   -1.084000e+002 1.400000e+001 3.200000e+001
      vertex   -1.084000e+002 1.840000e+001 3.200000e+001
      vertex   -1.052493e+002 1.400000e+001 3.200000e+001
    endloop
  endfacet
  facet normal -8.221320e-008 -1.674421e-009 -1.000000e+000
    outer loop
      vertex   -1.054000e+002 2.140000e+001 3.200000e+001
      vertex   -1.025000e+002 2.140000e+001 3.200000e+001
      vertex   -1.052493e+002 1.400000e+001 3.200000e+001
    endloop
  endfacet
  facet normal -8.672008e-008 -0.000000e+000 -1.000000e+000
    outer loop
      vertex   -1.052493e+002 1.400000e+001 3.200000e+001
      vertex   -1.025000e+002 2.140000e+001 3.200000e+001
      vertex   -1.025000e+002 1.025000e+001 3.200000e+001
    endloop
  endfacet
  facet normal -2.409200e-015 6.357829e-008 -1.000000e+000
    outer loop
      vertex   -1.054493e+002 1.025000e+001 3.200000e+001
      vertex   -1.052493e+002 1.400000e+001 3.200000e+001
      vertex   -1.025000e+002 1.025000e+001 3.200000e+001
    endloop
  endfacet
  facet normal 1.225072e-015 1.000000e+000 0.000000e+000
    outer loop
      vertex   -1.054000e+002 2.140000e+001 3.400000e+001
      vertex   -1.025000e+002 2.140000e+001 3.400000e+001
      vertex   -1.054000e+002 2.140000e+001 3.200000e+001
    endloop
  endfacet
  facet normal 1.225072e-015 1.000000e+000 0.000000e+000
    outer loop
      vertex   -1.054000e+002 2.140000e+001 3.200000e+001
      vertex   -1.025000e+002 2.140000e+001 3.400000e+001
      vertex   -1.025000e+002 2.140000e+001 3.200000e+001
    endloop
  endfacet
  facet normal 8.221331e-008 -8.987088e-023 -1.000000e+000
    outer loop
      vertex   -9.950000e+001 2.140000e+001 3.400000e+001
      vertex   -9.950000e+001 3.440000e+001 3.400000e+001
      vertex   -9.660000e+001 2.140000e+001 3.400000e+001
    endloop
  endfacet
  facet normal 8.221331e-008 0.000000e+000 -1.000000e+000
    outer loop
      vertex   -9.660000e+001 2.140000e+001 3.400000e+001
      vertex   -9.950000e+001 3.440000e+001 3.400000e+001
      vertex   -9.660000e+001 4.190000e+001 3.400000e+001
    endloop
  endfacet
  facet normal 7.109201e-008 4.300235e-009 -1.000000e+000
    outer loop
      vertex   -9.660000e+001 4.190000e+001 3.400000e+001
      vertex   -9.950000e+001 3.440000e+001 3.400000e+001
      vertex   -9.951094e+001 3.458080e+001 3.400000e+001
    endloop
  endfacet
  facet normal 5.606908e-008 1.027504e-008 -1.000000e+000
    outer loop
      vertex   -9.954359e+001 3.475897e+001 3.400000e+001
      vertex   -9.660000e+001 4.190000e+001 3.400000e+001
      vertex   -9.951094e+001 3.458080e+001 3.400000e+001
    endloop
  endfacet
  facet normal 4.612630e-008 1.437354e-008 -1.000000e+000
    outer loop
      vertex   -9.954359e+001 3.475897e+001 3.400000e+001
      vertex   -9.959748e+001 3.493191e+001 3.400000e+001
      vertex   -9.660000e+001 4.190000e+001 3.400000e+001
    endloop
  endfacet
  facet normal 3.887116e-008 1.749449e-008 -1.000000e+000
    outer loop
      vertex   -9.660000e+001 4.190000e+001 3.400000e+001
      vertex   -9.959748e+001 3.493191e+001 3.400000e+001
      vertex   -9.967182e+001 3.509708e+001 3.400000e+001
    endloop
  endfacet
  facet normal 3.318596e-008 2.006161e-008 -1.000000e+000
    outer loop
      vertex   -9.976552e+001 3.525210e+001 3.400000e+001
      vertex   -9.660000e+001 4.190000e+001 3.400000e+001
      vertex   -9.967182e+001 3.509708e+001 3.400000e+001
    endloop
  endfacet
  facet normal 2.847189e-008 2.230630e-008 -1.000000e+000
    outer loop
      vertex   -9.976552e+001 3.525210e+001 3.400000e+001
      vertex   -9.987723e+001 3.539468e+001 3.400000e+001
      vertex   -9.660000e+001 4.190000e+001 3.400000e+001
    endloop
  endfacet
  facet normal 2.437182e-008 2.437182e-008 -1.000000e+000
    outer loop
      vertex   -9.660000e+001 4.190000e+001 3.400000e+001
      vertex   -9.987723e+001 3.539468e+001 3.400000e+001
      vertex   -1.000053e+002 3.552277e+001 3.400000e+001
    endloop
  endfacet
  facet normal 2.065079e-008 2.635878e-008 -1.000000e+000
    outer loop
      vertex   -1.001479e+002 3.563448e+001 3.400000e+001
      vertex   -9.660000e+001 4.190000e+001 3.400000e+001
      vertex   -1.000053e+002 3.552277e+001 3.400000e+001
    endloop
  endfacet
  facet normal 1.713719e-008 2.834838e-008 -1.000000e+000
    outer loop
      vertex   -1.001479e+002 3.563448e+001 3.400000e+001
      vertex   -1.003029e+002 3.572818e+001 3.400000e+001
      vertex   -9.660000e+001 4.190000e+001 3.400000e+001
    endloop
  endfacet
  facet normal 1.368953e-008 3.041688e-008 -1.000000e+000
    outer loop
      vertex   -9.660000e+001 4.190000e+001 3.400000e+001
      vertex   -1.003029e+002 3.572818e+001 3.400000e+001
      vertex   -1.004681e+002 3.580252e+001 3.400000e+001
    endloop
  endfacet
  facet normal 1.017336e-008 3.264746e-008 -1.000000e+000
    outer loop
      vertex   -1.006410e+002 3.585641e+001 3.400000e+001
      vertex   -9.660000e+001 4.190000e+001 3.400000e+001
      vertex   -1.004681e+002 3.580252e+001 3.400000e+001
    endloop
  endfacet
  facet normal 6.440296e-009 3.514356e-008 -1.000000e+000
    outer loop
      vertex   -1.006410e+002 3.585641e+001 3.400000e+001
      vertex   -1.008192e+002 3.588906e+001 3.400000e+001
      vertex   -9.660000e+001 4.190000e+001 3.400000e+001
    endloop
  endfacet
  facet normal 2.301519e-009 3.804865e-008 -1.000000e+000
    outer loop
      vertex   -9.660000e+001 4.190000e+001 3.400000e+001
      vertex   -1.008192e+002 3.588906e+001 3.400000e+001
      vertex   -1.010000e+002 3.590000e+001 3.400000e+001
    endloop
  endfacet
  facet normal -2.301519e-009 3.804865e-008 -1.000000e+000
    outer loop
      vertex   -1.054000e+002 4.190000e+001 3.400000e+001
      vertex   -1.010000e+002 3.590000e+001 3.400000e+001
      vertex   -1.011808e+002 3.588906e+001 3.400000e+001
    endloop
  endfacet
  facet normal -6.440295e-009 3.514355e-008 -1.000000e+000
    outer loop
      vertex   -1.013590e+002 3.585641e+001 3.400000e+001
      vertex   -1.054000e+002 4.190000e+001 3.400000e+001
      vertex   -1.011808e+002 3.588906e+001 3.400000e+001
    endloop
  endfacet
  facet normal -1.017336e-008 3.264745e-008 -1.000000e+000
    outer loop
      vertex   -1.013590e+002 3.585641e+001 3.400000e+001
      vertex   -1.015319e+002 3.580252e+001 3.400000e+001
      vertex   -1.054000e+002 4.190000e+001 3.400000e+001
    endloop
  endfacet
  facet normal -1.368953e-008 3.041688e-008 -1.000000e+000
    outer loop
      vertex   -1.054000e+002 4.190000e+001 3.400000e+001
      vertex   -1.015319e+002 3.580252e+001 3.400000e+001
      vertex   -1.016971e+002 3.572818e+001 3.400000e+001
    endloop
  endfacet
  facet normal -1.713719e-008 2.834837e-008 -1.000000e+000
    outer loop
      vertex   -1.018521e+002 3.563448e+001 3.400000e+001
      vertex   -1.054000e+002 4.190000e+001 3.400000e+001
      vertex   -1.016971e+002 3.572818e+001 3.400000e+001
    endloop
  endfacet
  facet normal -2.065078e-008 2.635877e-008 -1.000000e+000
    outer loop
      vertex   -1.018521e+002 3.563448e+001 3.400000e+001
      vertex   -1.019947e+002 3.552277e+001 3.400000e+001
      vertex   -1.054000e+002 4.190000e+001 3.400000e+001
    endloop
  endfacet
  facet normal -2.437181e-008 2.437181e-008 -1.000000e+000
    outer loop
      vertex   -1.054000e+002 4.190000e+001 3.400000e+001
      vertex   -1.019947e+002 3.552277e+001 3.400000e+001
      vertex   -1.021228e+002 3.539468e+001 3.400000e+001
    endloop
  endfacet
  facet normal -2.847188e-008 2.230629e-008 -1.000000e+000
    outer loop
      vertex   -1.022345e+002 3.525210e+001 3.400000e+001
      vertex   -1.054000e+002 4.190000e+001 3.400000e+001
      vertex   -1.021228e+002 3.539468e+001 3.400000e+001
    endloop
  endfacet
  facet normal -3.318594e-008 2.006160e-008 -1.000000e+000
    outer loop
      vertex   -1.022345e+002 3.525210e+001 3.400000e+001
      vertex   -1.023282e+002 3.509708e+001 3.400000e+001
      vertex   -1.054000e+002 4.190000e+001 3.400000e+001
    endloop
  endfacet
  facet normal -3.887114e-008 1.749448e-008 -1.000000e+000
    outer loop
      vertex   -1.054000e+002 4.190000e+001 3.400000e+001
      vertex   -1.023282e+002 3.509708e+001 3.400000e+001
      vertex   -1.024025e+002 3.493191e+001 3.400000e+001
    endloop
  endfacet
  facet normal -4.612626e-008 1.437353e-008 -1.000000e+000
    outer loop
      vertex   -1.024564e+002 3.475897e+001 3.400000e+001
      vertex   -1.054000e+002 4.190000e+001 3.400000e+001
      vertex   -1.024025e+002 3.493191e+001 3.400000e+001
    endloop
  endfacet
  facet normal -5.606903e-008 1.027503e-008 -1.000000e+000
    outer loop
      vertex   -1.024564e+002 3.475897e+001 3.400000e+001
      vertex   -1.024891e+002 3.458080e+001 3.400000e+001
      vertex   -1.054000e+002 4.190000e+001 3.400000e+001
    endloop
  endfacet
  facet normal -7.109193e-008 4.300230e-009 -1.000000e+000
    outer loop
      vertex   -1.054000e+002 4.190000e+001 3.400000e+001
      vertex   -1.024891e+002 3.458080e+001 3.400000e+001
      vertex   -1.025000e+002 3.440000e+001 3.400000e+001
    endloop
  endfacet
  facet normal -8.221320e-008 8.987076e-023 -1.000000e+000
    outer loop
      vertex   -1.054000e+002 2.140000e+001 3.400000e+001
      vertex   -1.025000e+002 3.440000e+001 3.400000e+001
      vertex   -1.025000e+002 2.140000e+001 3.400000e+001
    endloop
  endfacet
  facet normal -8.221320e-008 0.000000e+000 -1.000000e+000
    outer loop
      vertex   -1.054000e+002 2.140000e+001 3.400000e+001
      vertex   -1.054000e+002 4.190000e+001 3.400000e+001
      vertex   -1.025000e+002 3.440000e+001 3.400000e+001
    endloop
  endfacet
  facet normal 0.000000e+000 3.973643e-008 -1.000000e+000
    outer loop
      vertex   -9.660000e+001 4.190000e+001 3.400000e+001
      vertex   -1.010000e+002 3.590000e+001 3.400000e+001
      vertex   -1.054000e+002 4.190000e+001 3.400000e+001
    endloop
  endfacet
  facet normal 3.288532e-007 -1.935108e-022 1.000000e+000
    outer loop
      vertex   -9.950000e+001 1.025000e+001 4.300000e+001
      vertex   -9.660000e+001 2.140000e+001 4.300000e+001
      vertex   -9.950000e+001 3.440000e+001 4.300000e+001
    endloop
  endfacet
  facet normal 3.567918e-007 -7.266527e-009 1.000000e+000
    outer loop
      vertex   -9.950000e+001 1.025000e+001 4.300000e+001
      vertex   -9.675071e+001 1.400000e+001 4.300000e+001
      vertex   -9.660000e+001 2.140000e+001 4.300000e+001
    endloop
  endfacet
  facet normal 1.531728e-022 2.543132e-007 1.000000e+000
    outer loop
      vertex   -9.950000e+001 1.025000e+001 4.300000e+001
      vertex   -9.655071e+001 1.025000e+001 4.300000e+001
      vertex   -9.675071e+001 1.400000e+001 4.300000e+001
    endloop
  endfacet
  facet normal 0.000000e+000 -0.000000e+000 1.000000e+000
    outer loop
      vertex   -9.360000e+001 1.400000e+001 4.300000e+001
      vertex   -9.360000e+001 1.840000e+001 4.300000e+001
      vertex   -9.675071e+001 1.400000e+001 4.300000e+001
    endloop
  endfacet
  facet normal 0.000000e+000 -0.000000e+000 1.000000e+000
    outer loop
      vertex   -9.675071e+001 1.400000e+001 4.300000e+001
      vertex   -9.360000e+001 1.840000e+001 4.300000e+001
      vertex   -9.660000e+001 2.140000e+001 4.300000e+001
    endloop
  endfacet
  facet normal 3.288532e-007 -0.000000e+000 1.000000e+000
    outer loop
      vertex   -9.660000e+001 2.140000e+001 4.300000e+001
      vertex   -9.660000e+001 4.190000e+001 4.300000e+001
      vertex   -9.950000e+001 3.440000e+001 4.300000e+001
    endloop
  endfacet
  facet normal 2.843676e-007 1.720111e-008 1.000000e+000
    outer loop
      vertex   -9.950000e+001 3.440000e+001 4.300000e+001
      vertex   -9.660000e+001 4.190000e+001 4.300000e+001
      vertex   -9.951094e+001 3.458080e+001 4.300000e+001
    endloop
  endfacet
  facet normal 2.242763e-007 4.110016e-008 1.000000e+000
    outer loop
      vertex   -9.951094e+001 3.458080e+001 4.300000e+001
      vertex   -9.660000e+001 4.190000e+001 4.300000e+001
      vertex   -9.954359e+001 3.475897e+001 4.300000e+001
    endloop
  endfacet
  facet normal 1.845052e-007 5.749414e-008 1.000000e+000
    outer loop
      vertex   -9.954359e+001 3.475897e+001 4.300000e+001
      vertex   -9.660000e+001 4.190000e+001 4.300000e+001
      vertex   -9.959748e+001 3.493191e+001 4.300000e+001
    endloop
  endfacet
  facet normal 1.554846e-007 6.997795e-008 1.000000e+000
    outer loop
      vertex   -9.959748e+001 3.493191e+001 4.300000e+001
      vertex   -9.660000e+001 4.190000e+001 4.300000e+001
      vertex   -9.967182e+001 3.509708e+001 4.300000e+001
    endloop
  endfacet
  facet normal 1.327438e-007 8.024643e-008 1.000000e+000
    outer loop
      vertex   -9.967182e+001 3.509708e+001 4.300000e+001
      vertex   -9.660000e+001 4.190000e+001 4.300000e+001
      vertex   -9.976552e+001 3.525210e+001 4.300000e+001
    endloop
  endfacet
  facet normal 1.138875e-007 8.922520e-008 1.000000e+000
    outer loop
      vertex   -9.976552e+001 3.525210e+001 4.300000e+001
      vertex   -9.660000e+001 4.190000e+001 4.300000e+001
      vertex   -9.987723e+001 3.539468e+001 4.300000e+001
    endloop
  endfacet
  facet normal 9.748729e-008 9.748729e-008 1.000000e+000
    outer loop
      vertex   -9.987723e+001 3.539468e+001 4.300000e+001
      vertex   -9.660000e+001 4.190000e+001 4.300000e+001
      vertex   -1.000053e+002 3.552277e+001 4.300000e+001
    endloop
  endfacet
  facet normal 8.260314e-008 1.054351e-007 1.000000e+000
    outer loop
      vertex   -1.000053e+002 3.552277e+001 4.300000e+001
      vertex   -9.660000e+001 4.190000e+001 4.300000e+001
      vertex   -1.001479e+002 3.563448e+001 4.300000e+001
    endloop
  endfacet
  facet normal 6.854877e-008 1.133935e-007 1.000000e+000
    outer loop
      vertex   -1.001479e+002 3.563448e+001 4.300000e+001
      vertex   -9.660000e+001 4.190000e+001 4.300000e+001
      vertex   -1.003029e+002 3.572818e+001 4.300000e+001
    endloop
  endfacet
  facet normal 5.475811e-008 1.216675e-007 1.000000e+000
    outer loop
      vertex   -1.003029e+002 3.572818e+001 4.300000e+001
      vertex   -9.660000e+001 4.190000e+001 4.300000e+001
      vertex   -1.004681e+002 3.580252e+001 4.300000e+001
    endloop
  endfacet
  facet normal 4.069343e-008 1.305898e-007 1.000000e+000
    outer loop
      vertex   -1.004681e+002 3.580252e+001 4.300000e+001
      vertex   -9.660000e+001 4.190000e+001 4.300000e+001
      vertex   -1.006410e+002 3.585641e+001 4.300000e+001
    endloop
  endfacet
  facet normal 2.576118e-008 1.405742e-007 1.000000e+000
    outer loop
      vertex   -1.006410e+002 3.585641e+001 4.300000e+001
      vertex   -9.660000e+001 4.190000e+001 4.300000e+001
      vertex   -1.008192e+002 3.588906e+001 4.300000e+001
    endloop
  endfacet
  facet normal 9.206076e-009 1.521946e-007 1.000000e+000
    outer loop
      vertex   -1.008192e+002 3.588906e+001 4.300000e+001
      vertex   -9.660000e+001 4.190000e+001 4.300000e+001
      vertex   -1.010000e+002 3.590000e+001 4.300000e+001
    endloop
  endfacet
  facet normal 0.000000e+000 1.589457e-007 1.000000e+000
    outer loop
      vertex   -1.010000e+002 3.590000e+001 4.300000e+001
      vertex   -9.660000e+001 4.190000e+001 4.300000e+001
      vertex   -1.054000e+002 4.190000e+001 4.300000e+001
    endloop
  endfacet
  facet normal -2.576118e-008 1.405742e-007 1.000000e+000
    outer loop
      vertex   -1.011808e+002 3.588906e+001 4.300000e+001
      vertex   -1.054000e+002 4.190000e+001 4.300000e+001
      vertex   -1.013590e+002 3.585641e+001 4.300000e+001
    endloop
  endfacet
  facet normal -9.206075e-009 1.521946e-007 1.000000e+000
    outer loop
      vertex   -1.011808e+002 3.588906e+001 4.300000e+001
      vertex   -1.010000e+002 3.590000e+001 4.300000e+001
      vertex   -1.054000e+002 4.190000e+001 4.300000e+001
    endloop
  endfacet
  facet normal -3.288528e-007 0.000000e+000 1.000000e+000
    outer loop
      vertex   -1.054000e+002 2.140000e+001 4.300000e+001
      vertex   -1.025000e+002 3.440000e+001 4.300000e+001
      vertex   -1.054000e+002 4.190000e+001 4.300000e+001
    endloop
  endfacet
  facet normal -3.288528e-007 1.935105e-022 1.000000e+000
    outer loop
      vertex   -1.054000e+002 2.140000e+001 4.300000e+001
      vertex   -1.025000e+002 1.025000e+001 4.300000e+001
      vertex   -1.025000e+002 3.440000e+001 4.300000e+001
    endloop
  endfacet
  facet normal -3.567920e-007 -7.266718e-009 1.000000e+000
    outer loop
      vertex   -1.054000e+002 2.140000e+001 4.300000e+001
      vertex   -1.052493e+002 1.400000e+001 4.300000e+001
      vertex   -1.025000e+002 1.025000e+001 4.300000e+001
    endloop
  endfacet
  facet normal 1.882054e-015 -1.882054e-015 1.000000e+000
    outer loop
      vertex   -1.054000e+002 2.140000e+001 4.300000e+001
      vertex   -1.084000e+002 1.840000e+001 4.300000e+001
      vertex   -1.052493e+002 1.400000e+001 4.300000e+001
    endloop
  endfacet
  facet normal 4.510359e-015 0.000000e+000 1.000000e+000
    outer loop
      vertex   -1.052493e+002 1.400000e+001 4.300000e+001
      vertex   -1.084000e+002 1.840000e+001 4.300000e+001
      vertex   -1.084000e+002 1.400000e+001 4.300000e+001
    endloop
  endfacet
  facet normal 3.063456e-022 2.543132e-007 1.000000e+000
    outer loop
      vertex   -1.052493e+002 1.400000e+001 4.300000e+001
      vertex   -1.054493e+002 1.025000e+001 4.300000e+001
      vertex   -1.025000e+002 1.025000e+001 4.300000e+001
    endloop
  endfacet
  facet normal -2.843673e-007 1.720109e-008 1.000000e+000
    outer loop
      vertex   -1.025000e+002 3.440000e+001 4.300000e+001
      vertex   -1.024891e+002 3.458080e+001 4.300000e+001
      vertex   -1.054000e+002 4.190000e+001 4.300000e+001
    endloop
  endfacet
  facet normal -2.242761e-007 4.110012e-008 1.000000e+000
    outer loop
      vertex   -1.054000e+002 4.190000e+001 4.300000e+001
      vertex   -1.024891e+002 3.458080e+001 4.300000e+001
      vertex   -1.024564e+002 3.475897e+001 4.300000e+001
    endloop
  endfacet
  facet normal -1.845050e-007 5.749410e-008 1.000000e+000
    outer loop
      vertex   -1.024025e+002 3.493191e+001 4.300000e+001
      vertex   -1.054000e+002 4.190000e+001 4.300000e+001
      vertex   -1.024564e+002 3.475897e+001 4.300000e+001
    endloop
  endfacet
  facet normal -1.554845e-007 6.997791e-008 1.000000e+000
    outer loop
      vertex   -1.024025e+002 3.493191e+001 4.300000e+001
      vertex   -1.023282e+002 3.509708e+001 4.300000e+001
      vertex   -1.054000e+002 4.190000e+001 4.300000e+001
    endloop
  endfacet
  facet normal -1.327437e-007 8.024639e-008 1.000000e+000
    outer loop
      vertex   -1.054000e+002 4.190000e+001 4.300000e+001
      vertex   -1.023282e+002 3.509708e+001 4.300000e+001
      vertex   -1.022345e+002 3.525210e+001 4.300000e+001
    endloop
  endfacet
  facet normal -1.138875e-007 8.922516e-008 1.000000e+000
    outer loop
      vertex   -1.021228e+002 3.539468e+001 4.300000e+001
      vertex   -1.054000e+002 4.190000e+001 4.300000e+001
      vertex   -1.022345e+002 3.525210e+001 4.300000e+001
    endloop
  endfacet
  facet normal -9.748725e-008 9.748725e-008 1.000000e+000
    outer loop
      vertex   -1.021228e+002 3.539468e+001 4.300000e+001
      vertex   -1.019947e+002 3.552277e+001 4.300000e+001
      vertex   -1.054000e+002 4.190000e+001 4.300000e+001
    endloop
  endfacet
  facet normal -8.260311e-008 1.054351e-007 1.000000e+000
    outer loop
      vertex   -1.054000e+002 4.190000e+001 4.300000e+001
      vertex   -1.019947e+002 3.552277e+001 4.300000e+001
      vertex   -1.018521e+002 3.563448e+001 4.300000e+001
    endloop
  endfacet
  facet normal -6.854875e-008 1.133935e-007 1.000000e+000
    outer loop
      vertex   -1.016971e+002 3.572818e+001 4.300000e+001
      vertex   -1.054000e+002 4.190000e+001 4.300000e+001
      vertex   -1.018521e+002 3.563448e+001 4.300000e+001
    endloop
  endfacet
  facet normal -5.475810e-008 1.216675e-007 1.000000e+000
    outer loop
      vertex   -1.016971e+002 3.572818e+001 4.300000e+001
      vertex   -1.015319e+002 3.580252e+001 4.300000e+001
      vertex   -1.054000e+002 4.190000e+001 4.300000e+001
    endloop
  endfacet
  facet normal -4.069343e-008 1.305898e-007 1.000000e+000
    outer loop
      vertex   -1.054000e+002 4.190000e+001 4.300000e+001
      vertex   -1.015319e+002 3.580252e+001 4.300000e+001
      vertex   -1.013590e+002 3.585641e+001 4.300000e+001
    endloop
  endfacet
  facet normal 0.000000e+000 -1.000000e+000 3.229739e-016
    outer loop
      vertex   -9.950000e+001 1.025000e+001 3.200000e+001
      vertex   -9.655071e+001 1.025000e+001 3.200000e+001
      vertex   -9.950000e+001 1.025000e+001 4.300000e+001
    endloop
  endfacet
  facet normal -6.022999e-016 -1.000000e+000 1.614870e-016
    outer loop
      vertex   -9.950000e+001 1.025000e+001 4.300000e+001
      vertex   -9.655071e+001 1.025000e+001 3.200000e+001
      vertex   -9.655071e+001 1.025000e+001 4.300000e+001
    endloop
  endfacet
  facet normal -1.204600e-015 -1.000000e+000 1.614870e-016
    outer loop
      vertex   -1.025000e+002 1.025000e+001 4.300000e+001
      vertex   -1.054493e+002 1.025000e+001 4.300000e+001
      vertex   -1.025000e+002 1.025000e+001 3.200000e+001
    endloop
  endfacet
  facet normal 1.167163e-030 -1.000000e+000 4.844609e-016
    outer loop
      vertex   -1.025000e+002 1.025000e+001 3.200000e+001
      vertex   -1.054493e+002 1.025000e+001 4.300000e+001
      vertex   -1.054493e+002 1.025000e+001 3.200000e+001
    endloop
  endfacet
  facet normal 0.000000e+000 1.000000e+000 -0.000000e+000
    outer loop
      vertex   -9.660000e+001 4.190000e+001 3.400000e+001
      vertex   -1.054000e+002 4.190000e+001 3.400000e+001
      vertex   -9.660000e+001 4.190000e+001 4.300000e+001
    endloop
  endfacet
  facet normal 0.000000e+000 1.000000e+000 -0.000000e+000
    outer loop
      vertex   -9.660000e+001 4.190000e+001 4.300000e+001
      vertex   -1.054000e+002 4.190000e+001 3.400000e+001
      vertex   -1.054000e+002 4.190000e+001 4.300000e+001
    endloop
  endfacet
  facet normal 1.000000e+000 -1.093143e-015 8.630273e-031
    outer loop
      vertex   -1.025000e+002 3.440000e+001 3.400000e+001
      vertex   -1.025000e+002 3.440000e+001 4.300000e+001
      vertex   -1.025000e+002 2.140000e+001 3.400000e+001
    endloop
  endfacet
  facet normal 1.000000e+000 -5.884412e-016 -7.290132e-016
    outer loop
      vertex   -1.025000e+002 2.140000e+001 3.400000e+001
      vertex   -1.025000e+002 3.440000e+001 4.300000e+001
      vertex   -1.025000e+002 1.025000e+001 4.300000e+001
    endloop
  endfacet
  facet normal 1.000000e+000 0.000000e+000 -0.000000e+000
    outer loop
      vertex   -1.025000e+002 1.025000e+001 3.200000e+001
      vertex   -1.025000e+002 2.140000e+001 3.400000e+001
      vertex   -1.025000e+002 1.025000e+001 4.300000e+001
    endloop
  endfacet
  facet normal 1.000000e+000 0.000000e+000 0.000000e+000
    outer loop
      vertex   -1.025000e+002 1.025000e+001 3.200000e+001
      vertex   -1.025000e+002 2.140000e+001 3.200000e+001
      vertex   -1.025000e+002 2.140000e+001 3.400000e+001
    endloop
  endfacet
  facet normal -9.995438e-001 -3.020303e-002 0.000000e+000
    outer loop
      vertex   -9.950000e+001 3.440000e+001 3.400000e+001
      vertex   -9.950000e+001 3.440000e+001 4.300000e+001
      vertex   -9.950274e+001 3.449057e+001 3.950000e+001
    endloop
  endfacet
  facet normal -9.927089e-001 -1.205367e-001 0.000000e+000
    outer loop
      vertex   -9.950274e+001 3.449057e+001 3.600000e+001
      vertex   -9.950274e+001 3.449057e+001 3.950000e+001
      vertex   -9.952457e+001 3.467038e+001 3.600000e+001
    endloop
  endfacet
  facet normal -9.836190e-001 -1.802549e-001 1.368333e-003
    outer loop
      vertex   -9.951094e+001 3.458080e+001 3.400000e+001
      vertex   -9.952457e+001 3.467038e+001 3.600000e+001
      vertex   -9.954359e+001 3.475897e+001 3.400000e+001
    endloop
  endfacet
  facet normal -9.927079e-001 -1.205366e-001 -1.368333e-003
    outer loop
      vertex   -9.951094e+001 3.458080e+001 3.400000e+001
      vertex   -9.950274e+001 3.449057e+001 3.600000e+001
      vertex   -9.952457e+001 3.467038e+001 3.600000e+001
    endloop
  endfacet
  facet normal -9.981746e-001 -6.037844e-002 1.368333e-003
    outer loop
      vertex   -9.951094e+001 3.458080e+001 3.400000e+001
      vertex   -9.950000e+001 3.440000e+001 3.400000e+001
      vertex   -9.950274e+001 3.449057e+001 3.600000e+001
    endloop
  endfacet
  facet normal -9.995438e-001 -3.020303e-002 0.000000e+000
    outer loop
      vertex   -9.950274e+001 3.449057e+001 3.600000e+001
      vertex   -9.950000e+001 3.440000e+001 3.400000e+001
      vertex   -9.950274e+001 3.449057e+001 3.950000e+001
    endloop
  endfacet
  facet normal -9.836196e-001 -1.802550e-001 -7.819049e-004
    outer loop
      vertex   -9.954359e+001 3.475897e+001 4.300000e+001
      vertex   -9.952457e+001 3.467038e+001 3.950000e+001
      vertex   -9.951094e+001 3.458080e+001 4.300000e+001
    endloop
  endfacet
  facet normal -9.709415e-001 -2.393156e-001 7.819049e-004
    outer loop
      vertex   -9.954359e+001 3.475897e+001 4.300000e+001
      vertex   -9.956792e+001 3.484625e+001 3.950000e+001
      vertex   -9.952457e+001 3.467038e+001 3.950000e+001
    endloop
  endfacet
  facet normal -9.547206e-001 -2.975030e-001 -7.819049e-004
    outer loop
      vertex   -9.954359e+001 3.475897e+001 4.300000e+001
      vertex   -9.959748e+001 3.493191e+001 4.300000e+001
      vertex   -9.956792e+001 3.484625e+001 3.950000e+001
    endloop
  endfacet
  facet normal -9.350160e-001 -3.546048e-001 7.819049e-004
    outer loop
      vertex   -9.956792e+001 3.484625e+001 3.950000e+001
      vertex   -9.959748e+001 3.493191e+001 4.300000e+001
      vertex   -9.963215e+001 3.501562e+001 3.950000e+001
    endloop
  endfacet
  facet normal -8.854560e-001 -4.647232e-001 0.000000e+000
    outer loop
      vertex   -9.963215e+001 3.501562e+001 3.600000e+001
      vertex   -9.963215e+001 3.501562e+001 3.950000e+001
      vertex   -9.971633e+001 3.517601e+001 3.600000e+001
    endloop
  endfacet
  facet normal -8.557805e-001 -5.173373e-001 1.368333e-003
    outer loop
      vertex   -9.967182e+001 3.509708e+001 3.400000e+001
      vertex   -9.971633e+001 3.517601e+001 3.600000e+001
      vertex   -9.976552e+001 3.525210e+001 3.400000e+001
    endloop
  endfacet
  facet normal -8.854552e-001 -4.647227e-001 -1.368333e-003
    outer loop
      vertex   -9.967182e+001 3.509708e+001 3.400000e+001
      vertex   -9.963215e+001 3.501562e+001 3.600000e+001
      vertex   -9.971633e+001 3.517601e+001 3.600000e+001
    endloop
  endfacet
  facet normal -9.118990e-001 -4.104124e-001 1.368333e-003
    outer loop
      vertex   -9.967182e+001 3.509708e+001 3.400000e+001
      vertex   -9.959748e+001 3.493191e+001 3.400000e+001
      vertex   -9.963215e+001 3.501562e+001 3.600000e+001
    endloop
  endfacet
  facet normal -9.350154e-001 -3.546046e-001 -1.368333e-003
    outer loop
      vertex   -9.963215e+001 3.501562e+001 3.600000e+001
      vertex   -9.959748e+001 3.493191e+001 3.400000e+001
      vertex   -9.956792e+001 3.484625e+001 3.600000e+001
    endloop
  endfacet
  facet normal -9.709418e-001 -2.393157e-001 -0.000000e+000
    outer loop
      vertex   -9.956792e+001 3.484625e+001 3.950000e+001
      vertex   -9.956792e+001 3.484625e+001 3.600000e+001
      vertex   -9.952457e+001 3.467038e+001 3.950000e+001
    endloop
  endfacet
  facet normal -9.350162e-001 -3.546049e-001 0.000000e+000
    outer loop
      vertex   -9.956792e+001 3.484625e+001 3.950000e+001
      vertex   -9.963215e+001 3.501562e+001 3.600000e+001
      vertex   -9.956792e+001 3.484625e+001 3.600000e+001
    endloop
  endfacet
  facet normal -9.350162e-001 -3.546049e-001 -0.000000e+000
    outer loop
      vertex   -9.956792e+001 3.484625e+001 3.950000e+001
      vertex   -9.963215e+001 3.501562e+001 3.950000e+001
      vertex   -9.963215e+001 3.501562e+001 3.600000e+001
    endloop
  endfacet
  facet normal -9.118996e-001 -4.104127e-001 -7.819049e-004
    outer loop
      vertex   -9.959748e+001 3.493191e+001 4.300000e+001
      vertex   -9.967182e+001 3.509708e+001 4.300000e+001
      vertex   -9.963215e+001 3.501562e+001 3.950000e+001
    endloop
  endfacet
  facet normal -8.854558e-001 -4.647230e-001 7.819049e-004
    outer loop
      vertex   -9.963215e+001 3.501562e+001 3.950000e+001
      vertex   -9.967182e+001 3.509708e+001 4.300000e+001
      vertex   -9.971633e+001 3.517601e+001 3.950000e+001
    endloop
  endfacet
  facet normal -8.229839e-001 -5.680647e-001 0.000000e+000
    outer loop
      vertex   -9.971633e+001 3.517601e+001 3.600000e+001
      vertex   -9.971633e+001 3.517601e+001 3.950000e+001
      vertex   -9.981922e+001 3.532508e+001 3.600000e+001
    endloop
  endfacet
  facet normal -7.871827e-001 -6.167183e-001 1.368333e-003
    outer loop
      vertex   -9.976552e+001 3.525210e+001 3.400000e+001
      vertex   -9.981922e+001 3.532508e+001 3.600000e+001
      vertex   -9.987723e+001 3.539468e+001 3.400000e+001
    endloop
  endfacet
  facet normal -8.229831e-001 -5.680642e-001 -1.368333e-003
    outer loop
      vertex   -9.976552e+001 3.525210e+001 3.400000e+001
      vertex   -9.971633e+001 3.517601e+001 3.600000e+001
      vertex   -9.981922e+001 3.532508e+001 3.600000e+001
    endloop
  endfacet
  facet normal -8.557810e-001 -5.173377e-001 -7.819049e-004
    outer loop
      vertex   -9.967182e+001 3.509708e+001 4.300000e+001
      vertex   -9.976552e+001 3.525210e+001 4.300000e+001
      vertex   -9.971633e+001 3.517601e+001 3.950000e+001
    endloop
  endfacet
  facet normal -8.229836e-001 -5.680646e-001 7.819049e-004
    outer loop
      vertex   -9.971633e+001 3.517601e+001 3.950000e+001
      vertex   -9.976552e+001 3.525210e+001 4.300000e+001
      vertex   -9.981922e+001 3.532508e+001 3.950000e+001
    endloop
  endfacet
  facet normal -7.485107e-001 -6.631227e-001 0.000000e+000
    outer loop
      vertex   -9.981922e+001 3.532508e+001 3.600000e+001
      vertex   -9.981922e+001 3.532508e+001 3.950000e+001
      vertex   -9.993934e+001 3.546066e+001 3.600000e+001
    endloop
  endfacet
  facet normal -7.071061e-001 -7.071061e-001 1.368333e-003
    outer loop
      vertex   -9.987723e+001 3.539468e+001 3.400000e+001
      vertex   -9.993934e+001 3.546066e+001 3.600000e+001
      vertex   -1.000053e+002 3.552277e+001 3.400000e+001
    endloop
  endfacet
  facet normal -7.485100e-001 -6.631220e-001 -1.368333e-003
    outer loop
      vertex   -9.987723e+001 3.539468e+001 3.400000e+001
      vertex   -9.981922e+001 3.532508e+001 3.600000e+001
      vertex   -9.993934e+001 3.546066e+001 3.600000e+001
    endloop
  endfacet
  facet normal -7.871832e-001 -6.167187e-001 -7.819049e-004
    outer loop
      vertex   -9.976552e+001 3.525210e+001 4.300000e+001
      vertex   -9.987723e+001 3.539468e+001 4.300000e+001
      vertex   -9.981922e+001 3.532508e+001 3.950000e+001
    endloop
  endfacet
  facet normal -7.485105e-001 -6.631225e-001 7.819049e-004
    outer loop
      vertex   -9.981922e+001 3.532508e+001 3.950000e+001
      vertex   -9.987723e+001 3.539468e+001 4.300000e+001
      vertex   -9.993934e+001 3.546066e+001 3.950000e+001
    endloop
  endfacet
  facet normal -6.631227e-001 -7.485107e-001 0.000000e+000
    outer loop
      vertex   -9.993934e+001 3.546066e+001 3.600000e+001
      vertex   -9.993934e+001 3.546066e+001 3.950000e+001
      vertex   -1.000749e+002 3.558077e+001 3.600000e+001
    endloop
  endfacet
  facet normal -6.167183e-001 -7.871827e-001 1.368333e-003
    outer loop
      vertex   -1.000053e+002 3.552277e+001 3.400000e+001
      vertex   -1.000749e+002 3.558077e+001 3.600000e+001
      vertex   -1.001479e+002 3.563448e+001 3.400000e+001
    endloop
  endfacet
  facet normal -6.631220e-001 -7.485100e-001 -1.368333e-003
    outer loop
      vertex   -1.000053e+002 3.552277e+001 3.400000e+001
      vertex   -9.993934e+001 3.546066e+001 3.600000e+001
      vertex   -1.000749e+002 3.558077e+001 3.600000e+001
    endloop
  endfacet
  facet normal -7.071066e-001 -7.071066e-001 -7.819049e-004
    outer loop
      vertex   -9.987723e+001 3.539468e+001 4.300000e+001
      vertex   -1.000053e+002 3.552277e+001 4.300000e+001
      vertex   -9.993934e+001 3.546066e+001 3.950000e+001
    endloop
  endfacet
  facet normal -6.631225e-001 -7.485105e-001 7.819049e-004
    outer loop
      vertex   -9.993934e+001 3.546066e+001 3.950000e+001
      vertex   -1.000053e+002 3.552277e+001 4.300000e+001
      vertex   -1.000749e+002 3.558077e+001 3.950000e+001
    endloop
  endfacet
  facet normal -5.680647e-001 -8.229839e-001 0.000000e+000
    outer loop
      vertex   -1.000749e+002 3.558077e+001 3.600000e+001
      vertex   -1.000749e+002 3.558077e+001 3.950000e+001
      vertex   -1.002240e+002 3.568367e+001 3.600000e+001
    endloop
  endfacet
  facet normal -5.173373e-001 -8.557805e-001 1.368333e-003
    outer loop
      vertex   -1.001479e+002 3.563448e+001 3.400000e+001
      vertex   -1.002240e+002 3.568367e+001 3.600000e+001
      vertex   -1.003029e+002 3.572818e+001 3.400000e+001
    endloop
  endfacet
  facet normal -5.680642e-001 -8.229831e-001 -1.368333e-003
    outer loop
      vertex   -1.001479e+002 3.563448e+001 3.400000e+001
      vertex   -1.000749e+002 3.558077e+001 3.600000e+001
      vertex   -1.002240e+002 3.568367e+001 3.600000e+001
    endloop
  endfacet
  facet normal -6.167187e-001 -7.871832e-001 -7.819049e-004
    outer loop
      vertex   -1.000053e+002 3.552277e+001 4.300000e+001
      vertex   -1.001479e+002 3.563448e+001 4.300000e+001
      vertex   -1.000749e+002 3.558077e+001 3.950000e+001
    endloop
  endfacet
  facet normal -5.680646e-001 -8.229836e-001 7.819049e-004
    outer loop
      vertex   -1.000749e+002 3.558077e+001 3.950000e+001
      vertex   -1.001479e+002 3.563448e+001 4.300000e+001
      vertex   -1.002240e+002 3.568367e+001 3.950000e+001
    endloop
  endfacet
  facet normal -4.647232e-001 -8.854560e-001 0.000000e+000
    outer loop
      vertex   -1.002240e+002 3.568367e+001 3.600000e+001
      vertex   -1.002240e+002 3.568367e+001 3.950000e+001
      vertex   -1.003844e+002 3.576785e+001 3.600000e+001
    endloop
  endfacet
  facet normal -4.104124e-001 -9.118990e-001 1.368333e-003
    outer loop
      vertex   -1.003029e+002 3.572818e+001 3.400000e+001
      vertex   -1.003844e+002 3.576785e+001 3.600000e+001
      vertex   -1.004681e+002 3.580252e+001 3.400000e+001
    endloop
  endfacet
  facet normal -4.647227e-001 -8.854552e-001 -1.368333e-003
    outer loop
      vertex   -1.003029e+002 3.572818e+001 3.400000e+001
      vertex   -1.002240e+002 3.568367e+001 3.600000e+001
      vertex   -1.003844e+002 3.576785e+001 3.600000e+001
    endloop
  endfacet
  facet normal -5.173377e-001 -8.557810e-001 -7.819049e-004
    outer loop
      vertex   -1.001479e+002 3.563448e+001 4.300000e+001
      vertex   -1.003029e+002 3.572818e+001 4.300000e+001
      vertex   -1.002240e+002 3.568367e+001 3.950000e+001
    endloop
  endfacet
  facet normal -4.647230e-001 -8.854558e-001 7.819049e-004
    outer loop
      vertex   -1.002240e+002 3.568367e+001 3.950000e+001
      vertex   -1.003029e+002 3.572818e+001 4.300000e+001
      vertex   -1.003844e+002 3.576785e+001 3.950000e+001
    endloop
  endfacet
  facet normal -3.546049e-001 -9.350162e-001 0.000000e+000
    outer loop
      vertex   -1.003844e+002 3.576785e+001 3.600000e+001
      vertex   -1.003844e+002 3.576785e+001 3.950000e+001
      vertex   -1.005537e+002 3.583208e+001 3.600000e+001
    endloop
  endfacet
  facet normal -2.975028e-001 -9.547200e-001 1.368333e-003
    outer loop
      vertex   -1.004681e+002 3.580252e+001 3.400000e+001
      vertex   -1.005537e+002 3.583208e+001 3.600000e+001
      vertex   -1.006410e+002 3.585641e+001 3.400000e+001
    endloop
  endfacet
  facet normal -3.546046e-001 -9.350154e-001 -1.368333e-003
    outer loop
      vertex   -1.004681e+002 3.580252e+001 3.400000e+001
      vertex   -1.003844e+002 3.576785e+001 3.600000e+001
      vertex   -1.005537e+002 3.583208e+001 3.600000e+001
    endloop
  endfacet
  facet normal -4.104127e-001 -9.118996e-001 -7.819049e-004
    outer loop
      vertex   -1.003029e+002 3.572818e+001 4.300000e+001
      vertex   -1.004681e+002 3.580252e+001 4.300000e+001
      vertex   -1.003844e+002 3.576785e+001 3.950000e+001
    endloop
  endfacet
  facet normal -3.546048e-001 -9.350160e-001 7.819049e-004
    outer loop
      vertex   -1.003844e+002 3.576785e+001 3.950000e+001
      vertex   -1.004681e+002 3.580252e+001 4.300000e+001
      vertex   -1.005537e+002 3.583208e+001 3.950000e+001
    endloop
  endfacet
  facet normal -2.393157e-001 -9.709418e-001 0.000000e+000
    outer loop
      vertex   -1.005537e+002 3.583208e+001 3.600000e+001
      vertex   -1.005537e+002 3.583208e+001 3.950000e+001
      vertex   -1.007296e+002 3.587543e+001 3.600000e+001
    endloop
  endfacet
  facet normal -1.802549e-001 -9.836190e-001 1.368333e-003
    outer loop
      vertex   -1.006410e+002 3.585641e+001 3.400000e+001
      vertex   -1.007296e+002 3.587543e+001 3.600000e+001
      vertex   -1.008192e+002 3.588906e+001 3.400000e+001
    endloop
  endfacet
  facet normal -2.393154e-001 -9.709409e-001 -1.368333e-003
    outer loop
      vertex   -1.006410e+002 3.585641e+001 3.400000e+001
      vertex   -1.005537e+002 3.583208e+001 3.600000e+001
      vertex   -1.007296e+002 3.587543e+001 3.600000e+001
    endloop
  endfacet
  facet normal -2.975030e-001 -9.547206e-001 -7.819049e-004
    outer loop
      vertex   -1.004681e+002 3.580252e+001 4.300000e+001
      vertex   -1.006410e+002 3.585641e+001 4.300000e+001
      vertex   -1.005537e+002 3.583208e+001 3.950000e+001
    endloop
  endfacet
  facet normal -2.393156e-001 -9.709415e-001 7.819049e-004
    outer loop
      vertex   -1.005537e+002 3.583208e+001 3.950000e+001
      vertex   -1.006410e+002 3.585641e+001 4.300000e+001
      vertex   -1.007296e+002 3.587543e+001 3.950000e+001
    endloop
  endfacet
  facet normal -1.205367e-001 -9.927089e-001 0.000000e+000
    outer loop
      vertex   -1.007296e+002 3.587543e+001 3.600000e+001
      vertex   -1.007296e+002 3.587543e+001 3.950000e+001
      vertex   -1.009094e+002 3.589726e+001 3.600000e+001
    endloop
  endfacet
  facet normal -6.037844e-002 -9.981746e-001 1.368333e-003
    outer loop
      vertex   -1.008192e+002 3.588906e+001 3.400000e+001
      vertex   -1.009094e+002 3.589726e+001 3.600000e+001
      vertex   -1.010000e+002 3.590000e+001 3.400000e+001
    endloop
  endfacet
  facet normal -1.205366e-001 -9.927079e-001 -1.368333e-003
    outer loop
      vertex   -1.008192e+002 3.588906e+001 3.400000e+001
      vertex   -1.007296e+002 3.587543e+001 3.600000e+001
      vertex   -1.009094e+002 3.589726e+001 3.600000e+001
    endloop
  endfacet
  facet normal -1.802550e-001 -9.836196e-001 -7.819049e-004
    outer loop
      vertex   -1.006410e+002 3.585641e+001 4.300000e+001
      vertex   -1.008192e+002 3.588906e+001 4.300000e+001
      vertex   -1.007296e+002 3.587543e+001 3.950000e+001
    endloop
  endfacet
  facet normal -1.205366e-001 -9.927086e-001 7.819049e-004
    outer loop
      vertex   -1.007296e+002 3.587543e+001 3.950000e+001
      vertex   -1.008192e+002 3.588906e+001 4.300000e+001
      vertex   -1.009094e+002 3.589726e+001 3.950000e+001
    endloop
  endfacet
  facet normal -0.000000e+000 -1.000000e+000 0.000000e+000
    outer loop
      vertex   -1.009094e+002 3.589726e+001 3.600000e+001
      vertex   -1.009094e+002 3.589726e+001 3.950000e+001
      vertex   -1.010906e+002 3.589726e+001 3.600000e+001
    endloop
  endfacet
  facet normal 6.037844e-002 -9.981746e-001 1.368333e-003
    outer loop
      vertex   -1.010000e+002 3.590000e+001 3.400000e+001
      vertex   -1.010906e+002 3.589726e+001 3.600000e+001
      vertex   -1.011808e+002 3.588906e+001 3.400000e+001
    endloop
  endfacet
  facet normal -0.000000e+000 -9.999991e-001 -1.368333e-003
    outer loop
      vertex   -1.010000e+002 3.590000e+001 3.400000e+001
      vertex   -1.009094e+002 3.589726e+001 3.600000e+001
      vertex   -1.010906e+002 3.589726e+001 3.600000e+001
    endloop
  endfacet
  facet normal -6.037848e-002 -9.981752e-001 -7.819049e-004
    outer loop
      vertex   -1.008192e+002 3.588906e+001 4.300000e+001
      vertex   -1.010000e+002 3.590000e+001 4.300000e+001
      vertex   -1.009094e+002 3.589726e+001 3.950000e+001
    endloop
  endfacet
  facet normal 0.000000e+000 -9.999997e-001 7.819049e-004
    outer loop
      vertex   -1.009094e+002 3.589726e+001 3.950000e+001
      vertex   -1.010000e+002 3.590000e+001 4.300000e+001
      vertex   -1.010906e+002 3.589726e+001 3.950000e+001
    endloop
  endfacet
  facet normal 1.205367e-001 -9.927089e-001 0.000000e+000
    outer loop
      vertex   -1.010906e+002 3.589726e+001 3.600000e+001
      vertex   -1.010906e+002 3.589726e+001 3.950000e+001
      vertex   -1.012704e+002 3.587543e+001 3.600000e+001
    endloop
  endfacet
  facet normal 1.802549e-001 -9.836190e-001 1.368333e-003
    outer loop
      vertex   -1.011808e+002 3.588906e+001 3.400000e+001
      vertex   -1.012704e+002 3.587543e+001 3.600000e+001
      vertex   -1.013590e+002 3.585641e+001 3.400000e+001
    endloop
  endfacet
  facet normal 1.205366e-001 -9.927079e-001 -1.368333e-003
    outer loop
      vertex   -1.011808e+002 3.588906e+001 3.400000e+001
      vertex   -1.010906e+002 3.589726e+001 3.600000e+001
      vertex   -1.012704e+002 3.587543e+001 3.600000e+001
    endloop
  endfacet
  facet normal 6.037848e-002 -9.981752e-001 -7.819049e-004
    outer loop
      vertex   -1.010000e+002 3.590000e+001 4.300000e+001
      vertex   -1.011808e+002 3.588906e+001 4.300000e+001
      vertex   -1.010906e+002 3.589726e+001 3.950000e+001
    endloop
  endfacet
  facet normal 1.205366e-001 -9.927086e-001 7.819049e-004
    outer loop
      vertex   -1.010906e+002 3.589726e+001 3.950000e+001
      vertex   -1.011808e+002 3.588906e+001 4.300000e+001
      vertex   -1.012704e+002 3.587543e+001 3.950000e+001
    endloop
  endfacet
  facet normal 2.393157e-001 -9.709418e-001 0.000000e+000
    outer loop
      vertex   -1.012704e+002 3.587543e+001 3.600000e+001
      vertex   -1.012704e+002 3.587543e+001 3.950000e+001
      vertex   -1.014463e+002 3.583208e+001 3.600000e+001
    endloop
  endfacet
  facet normal 2.975028e-001 -9.547200e-001 1.368333e-003
    outer loop
      vertex   -1.013590e+002 3.585641e+001 3.400000e+001
      vertex   -1.014463e+002 3.583208e+001 3.600000e+001
      vertex   -1.015319e+002 3.580252e+001 3.400000e+001
    endloop
  endfacet
  facet normal 2.393154e-001 -9.709409e-001 -1.368333e-003
    outer loop
      vertex   -1.013590e+002 3.585641e+001 3.400000e+001
      vertex   -1.012704e+002 3.587543e+001 3.600000e+001
      vertex   -1.014463e+002 3.583208e+001 3.600000e+001
    endloop
  endfacet
  facet normal 1.802550e-001 -9.836196e-001 -7.819049e-004
    outer loop
      vertex   -1.011808e+002 3.588906e+001 4.300000e+001
      vertex   -1.013590e+002 3.585641e+001 4.300000e+001
      vertex   -1.012704e+002 3.587543e+001 3.950000e+001
    endloop
  endfacet
  facet normal 2.393156e-001 -9.709415e-001 7.819049e-004
    outer loop
      vertex   -1.012704e+002 3.587543e+001 3.950000e+001
      vertex   -1.013590e+002 3.585641e+001 4.300000e+001
      vertex   -1.014463e+002 3.583208e+001 3.950000e+001
    endloop
  endfacet
  facet normal 3.546049e-001 -9.350162e-001 0.000000e+000
    outer loop
      vertex   -1.014463e+002 3.583208e+001 3.600000e+001
      vertex   -1.014463e+002 3.583208e+001 3.950000e+001
      vertex   -1.016156e+002 3.576785e+001 3.600000e+001
    endloop
  endfacet
  facet normal 4.104124e-001 -9.118990e-001 1.368333e-003
    outer loop
      vertex   -1.015319e+002 3.580252e+001 3.400000e+001
      vertex   -1.016156e+002 3.576785e+001 3.600000e+001
      vertex   -1.016971e+002 3.572818e+001 3.400000e+001
    endloop
  endfacet
  facet normal 3.546046e-001 -9.350154e-001 -1.368333e-003
    outer loop
      vertex   -1.015319e+002 3.580252e+001 3.400000e+001
      vertex   -1.014463e+002 3.583208e+001 3.600000e+001
      vertex   -1.016156e+002 3.576785e+001 3.600000e+001
    endloop
  endfacet
  facet normal 2.975030e-001 -9.547206e-001 -7.819049e-004
    outer loop
      vertex   -1.013590e+002 3.585641e+001 4.300000e+001
      vertex   -1.015319e+002 3.580252e+001 4.300000e+001
      vertex   -1.014463e+002 3.583208e+001 3.950000e+001
    endloop
  endfacet
  facet normal 3.546048e-001 -9.350160e-001 7.819049e-004
    outer loop
      vertex   -1.014463e+002 3.583208e+001 3.950000e+001
      vertex   -1.015319e+002 3.580252e+001 4.300000e+001
      vertex   -1.016156e+002 3.576785e+001 3.950000e+001
    endloop
  endfacet
  facet normal 4.647232e-001 -8.854560e-001 0.000000e+000
    outer loop
      vertex   -1.016156e+002 3.576785e+001 3.600000e+001
      vertex   -1.016156e+002 3.576785e+001 3.950000e+001
      vertex   -1.017760e+002 3.568367e+001 3.600000e+001
    endloop
  endfacet
  facet normal 5.173373e-001 -8.557805e-001 1.368333e-003
    outer loop
      vertex   -1.016971e+002 3.572818e+001 3.400000e+001
      vertex   -1.017760e+002 3.568367e+001 3.600000e+001
      vertex   -1.018521e+002 3.563448e+001 3.400000e+001
    endloop
  endfacet
  facet normal 4.647227e-001 -8.854552e-001 -1.368333e-003
    outer loop
      vertex   -1.016971e+002 3.572818e+001 3.400000e+001
      vertex   -1.016156e+002 3.576785e+001 3.600000e+001
      vertex   -1.017760e+002 3.568367e+001 3.600000e+001
    endloop
  endfacet
  facet normal 4.104127e-001 -9.118996e-001 -7.819049e-004
    outer loop
      vertex   -1.015319e+002 3.580252e+001 4.300000e+001
      vertex   -1.016971e+002 3.572818e+001 4.300000e+001
      vertex   -1.016156e+002 3.576785e+001 3.950000e+001
    endloop
  endfacet
  facet normal 4.647230e-001 -8.854558e-001 7.819049e-004
    outer loop
      vertex   -1.016156e+002 3.576785e+001 3.950000e+001
      vertex   -1.016971e+002 3.572818e+001 4.300000e+001
      vertex   -1.017760e+002 3.568367e+001 3.950000e+001
    endloop
  endfacet
  facet normal 5.680647e-001 -8.229839e-001 0.000000e+000
    outer loop
      vertex   -1.017760e+002 3.568367e+001 3.600000e+001
      vertex   -1.017760e+002 3.568367e+001 3.950000e+001
      vertex   -1.019251e+002 3.558077e+001 3.600000e+001
    endloop
  endfacet
  facet normal 6.167183e-001 -7.871827e-001 1.368333e-003
    outer loop
      vertex   -1.018521e+002 3.563448e+001 3.400000e+001
      vertex   -1.019251e+002 3.558077e+001 3.600000e+001
      vertex   -1.019947e+002 3.552277e+001 3.400000e+001
    endloop
  endfacet
  facet normal 5.680642e-001 -8.229831e-001 -1.368333e-003
    outer loop
      vertex   -1.018521e+002 3.563448e+001 3.400000e+001
      vertex   -1.017760e+002 3.568367e+001 3.600000e+001
      vertex   -1.019251e+002 3.558077e+001 3.600000e+001
    endloop
  endfacet
  facet normal 5.173377e-001 -8.557810e-001 -7.819049e-004
    outer loop
      vertex   -1.016971e+002 3.572818e+001 4.300000e+001
      vertex   -1.018521e+002 3.563448e+001 4.300000e+001
      vertex   -1.017760e+002 3.568367e+001 3.950000e+001
    endloop
  endfacet
  facet normal 5.680646e-001 -8.229836e-001 7.819049e-004
    outer loop
      vertex   -1.017760e+002 3.568367e+001 3.950000e+001
      vertex   -1.018521e+002 3.563448e+001 4.300000e+001
      vertex   -1.019251e+002 3.558077e+001 3.950000e+001
    endloop
  endfacet
  facet normal 6.631227e-001 -7.485107e-001 0.000000e+000
    outer loop
      vertex   -1.019251e+002 3.558077e+001 3.600000e+001
      vertex   -1.019251e+002 3.558077e+001 3.950000e+001
      vertex   -1.020607e+002 3.546066e+001 3.600000e+001
    endloop
  endfacet
  facet normal 7.071061e-001 -7.071061e-001 1.368333e-003
    outer loop
      vertex   -1.019947e+002 3.552277e+001 3.400000e+001
      vertex   -1.020607e+002 3.546066e+001 3.600000e+001
      vertex   -1.021228e+002 3.539468e+001 3.400000e+001
    endloop
  endfacet
  facet normal 6.631220e-001 -7.485100e-001 -1.368333e-003
    outer loop
      vertex   -1.019947e+002 3.552277e+001 3.400000e+001
      vertex   -1.019251e+002 3.558077e+001 3.600000e+001
      vertex   -1.020607e+002 3.546066e+001 3.600000e+001
    endloop
  endfacet
  facet normal 6.167187e-001 -7.871832e-001 -7.819049e-004
    outer loop
      vertex   -1.018521e+002 3.563448e+001 4.300000e+001
      vertex   -1.019947e+002 3.552277e+001 4.300000e+001
      vertex   -1.019251e+002 3.558077e+001 3.950000e+001
    endloop
  endfacet
  facet normal 6.631225e-001 -7.485105e-001 7.819049e-004
    outer loop
      vertex   -1.019251e+002 3.558077e+001 3.950000e+001
      vertex   -1.019947e+002 3.552277e+001 4.300000e+001
      vertex   -1.020607e+002 3.546066e+001 3.950000e+001
    endloop
  endfacet
  facet normal 7.485107e-001 -6.631227e-001 0.000000e+000
    outer loop
      vertex   -1.020607e+002 3.546066e+001 3.600000e+001
      vertex   -1.020607e+002 3.546066e+001 3.950000e+001
      vertex   -1.021808e+002 3.532508e+001 3.600000e+001
    endloop
  endfacet
  facet normal 7.871827e-001 -6.167183e-001 1.368333e-003
    outer loop
      vertex   -1.021228e+002 3.539468e+001 3.400000e+001
      vertex   -1.021808e+002 3.532508e+001 3.600000e+001
      vertex   -1.022345e+002 3.525210e+001 3.400000e+001
    endloop
  endfacet
  facet normal 7.485100e-001 -6.631220e-001 -1.368333e-003
    outer loop
      vertex   -1.021228e+002 3.539468e+001 3.400000e+001
      vertex   -1.020607e+002 3.546066e+001 3.600000e+001
      vertex   -1.021808e+002 3.532508e+001 3.600000e+001
    endloop
  endfacet
  facet normal 7.071066e-001 -7.071066e-001 -7.819049e-004
    outer loop
      vertex   -1.019947e+002 3.552277e+001 4.300000e+001
      vertex   -1.021228e+002 3.539468e+001 4.300000e+001
      vertex   -1.020607e+002 3.546066e+001 3.950000e+001
    endloop
  endfacet
  facet normal 7.485105e-001 -6.631225e-001 7.819049e-004
    outer loop
      vertex   -1.020607e+002 3.546066e+001 3.950000e+001
      vertex   -1.021228e+002 3.539468e+001 4.300000e+001
      vertex   -1.021808e+002 3.532508e+001 3.950000e+001
    endloop
  endfacet
  facet normal 8.229839e-001 -5.680647e-001 0.000000e+000
    outer loop
      vertex   -1.021808e+002 3.532508e+001 3.600000e+001
      vertex   -1.021808e+002 3.532508e+001 3.950000e+001
      vertex   -1.022837e+002 3.517601e+001 3.600000e+001
    endloop
  endfacet
  facet normal 8.557805e-001 -5.173373e-001 1.368333e-003
    outer loop
      vertex   -1.022345e+002 3.525210e+001 3.400000e+001
      vertex   -1.022837e+002 3.517601e+001 3.600000e+001
      vertex   -1.023282e+002 3.509708e+001 3.400000e+001
    endloop
  endfacet
  facet normal 8.229831e-001 -5.680642e-001 -1.368333e-003
    outer loop
      vertex   -1.022345e+002 3.525210e+001 3.400000e+001
      vertex   -1.021808e+002 3.532508e+001 3.600000e+001
      vertex   -1.022837e+002 3.517601e+001 3.600000e+001
    endloop
  endfacet
  facet normal 7.871832e-001 -6.167187e-001 -7.819049e-004
    outer loop
      vertex   -1.021228e+002 3.539468e+001 4.300000e+001
      vertex   -1.022345e+002 3.525210e+001 4.300000e+001
      vertex   -1.021808e+002 3.532508e+001 3.950000e+001
    endloop
  endfacet
  facet normal 8.229836e-001 -5.680646e-001 7.819049e-004
    outer loop
      vertex   -1.021808e+002 3.532508e+001 3.950000e+001
      vertex   -1.022345e+002 3.525210e+001 4.300000e+001
      vertex   -1.022837e+002 3.517601e+001 3.950000e+001
    endloop
  endfacet
  facet normal 8.854560e-001 -4.647232e-001 0.000000e+000
    outer loop
      vertex   -1.022837e+002 3.517601e+001 3.600000e+001
      vertex   -1.022837e+002 3.517601e+001 3.950000e+001
      vertex   -1.023678e+002 3.501562e+001 3.600000e+001
    endloop
  endfacet
  facet normal 9.118990e-001 -4.104124e-001 1.368333e-003
    outer loop
      vertex   -1.023282e+002 3.509708e+001 3.400000e+001
      vertex   -1.023678e+002 3.501562e+001 3.600000e+001
      vertex   -1.024025e+002 3.493191e+001 3.400000e+001
    endloop
  endfacet
  facet normal 8.854552e-001 -4.647227e-001 -1.368333e-003
    outer loop
      vertex   -1.023282e+002 3.509708e+001 3.400000e+001
      vertex   -1.022837e+002 3.517601e+001 3.600000e+001
      vertex   -1.023678e+002 3.501562e+001 3.600000e+001
    endloop
  endfacet
  facet normal 8.557810e-001 -5.173377e-001 -7.819049e-004
    outer loop
      vertex   -1.022345e+002 3.525210e+001 4.300000e+001
      vertex   -1.023282e+002 3.509708e+001 4.300000e+001
      vertex   -1.022837e+002 3.517601e+001 3.950000e+001
    endloop
  endfacet
  facet normal 8.854558e-001 -4.647230e-001 7.819049e-004
    outer loop
      vertex   -1.022837e+002 3.517601e+001 3.950000e+001
      vertex   -1.023282e+002 3.509708e+001 4.300000e+001
      vertex   -1.023678e+002 3.501562e+001 3.950000e+001
    endloop
  endfacet
  facet normal 9.350162e-001 -3.546049e-001 0.000000e+000
    outer loop
      vertex   -1.023678e+002 3.501562e+001 3.600000e+001
      vertex   -1.023678e+002 3.501562e+001 3.950000e+001
      vertex   -1.024321e+002 3.484625e+001 3.600000e+001
    endloop
  endfacet
  facet normal 9.547200e-001 -2.975028e-001 1.368333e-003
    outer loop
      vertex   -1.024025e+002 3.493191e+001 3.400000e+001
      vertex   -1.024321e+002 3.484625e+001 3.600000e+001
      vertex   -1.024564e+002 3.475897e+001 3.400000e+001
    endloop
  endfacet
  facet normal 9.350154e-001 -3.546046e-001 -1.368333e-003
    outer loop
      vertex   -1.024025e+002 3.493191e+001 3.400000e+001
      vertex   -1.023678e+002 3.501562e+001 3.600000e+001
      vertex   -1.024321e+002 3.484625e+001 3.600000e+001
    endloop
  endfacet
  facet normal 9.118996e-001 -4.104127e-001 -7.819049e-004
    outer loop
      vertex   -1.023282e+002 3.509708e+001 4.300000e+001
      vertex   -1.024025e+002 3.493191e+001 4.300000e+001
      vertex   -1.023678e+002 3.501562e+001 3.950000e+001
    endloop
  endfacet
  facet normal 9.350160e-001 -3.546048e-001 7.819049e-004
    outer loop
      vertex   -1.023678e+002 3.501562e+001 3.950000e+001
      vertex   -1.024025e+002 3.493191e+001 4.300000e+001
      vertex   -1.024321e+002 3.484625e+001 3.950000e+001
    endloop
  endfacet
  facet normal 9.709418e-001 -2.393157e-001 0.000000e+000
    outer loop
      vertex   -1.024321e+002 3.484625e+001 3.600000e+001
      vertex   -1.024321e+002 3.484625e+001 3.950000e+001
      vertex   -1.024754e+002 3.467038e+001 3.600000e+001
    endloop
  endfacet
  facet normal 9.836190e-001 -1.802549e-001 1.368333e-003
    outer loop
      vertex   -1.024564e+002 3.475897e+001 3.400000e+001
      vertex   -1.024754e+002 3.467038e+001 3.600000e+001
      vertex   -1.024891e+002 3.458080e+001 3.400000e+001
    endloop
  endfacet
  facet normal 9.709409e-001 -2.393154e-001 -1.368333e-003
    outer loop
      vertex   -1.024564e+002 3.475897e+001 3.400000e+001
      vertex   -1.024321e+002 3.484625e+001 3.600000e+001
      vertex   -1.024754e+002 3.467038e+001 3.600000e+001
    endloop
  endfacet
  facet normal 9.547206e-001 -2.975030e-001 -7.819049e-004
    outer loop
      vertex   -1.024025e+002 3.493191e+001 4.300000e+001
      vertex   -1.024564e+002 3.475897e+001 4.300000e+001
      vertex   -1.024321e+002 3.484625e+001 3.950000e+001
    endloop
  endfacet
  facet normal 9.709415e-001 -2.393156e-001 7.819049e-004
    outer loop
      vertex   -1.024321e+002 3.484625e+001 3.950000e+001
      vertex   -1.024564e+002 3.475897e+001 4.300000e+001
      vertex   -1.024754e+002 3.467038e+001 3.950000e+001
    endloop
  endfacet
  facet normal 9.927089e-001 -1.205367e-001 0.000000e+000
    outer loop
      vertex   -1.024754e+002 3.467038e+001 3.600000e+001
      vertex   -1.024754e+002 3.467038e+001 3.950000e+001
      vertex   -1.024973e+002 3.449057e+001 3.600000e+001
    endloop
  endfacet
  facet normal 9.981746e-001 -6.037844e-002 1.368333e-003
    outer loop
      vertex   -1.024891e+002 3.458080e+001 3.400000e+001
      vertex   -1.024973e+002 3.449057e+001 3.600000e+001
      vertex   -1.025000e+002 3.440000e+001 3.400000e+001
    endloop
  endfacet
  facet normal 9.927079e-001 -1.205366e-001 -1.368333e-003
    outer loop
      vertex   -1.024891e+002 3.458080e+001 3.400000e+001
      vertex   -1.024754e+002 3.467038e+001 3.600000e+001
      vertex   -1.024973e+002 3.449057e+001 3.600000e+001
    endloop
  endfacet
  facet normal 9.836196e-001 -1.802550e-001 -7.819049e-004
    outer loop
      vertex   -1.024564e+002 3.475897e+001 4.300000e+001
      vertex   -1.024891e+002 3.458080e+001 4.300000e+001
      vertex   -1.024754e+002 3.467038e+001 3.950000e+001
    endloop
  endfacet
  facet normal 9.927086e-001 -1.205366e-001 7.819049e-004
    outer loop
      vertex   -1.024754e+002 3.467038e+001 3.950000e+001
      vertex   -1.024891e+002 3.458080e+001 4.300000e+001
      vertex   -1.024973e+002 3.449057e+001 3.950000e+001
    endloop
  endfacet
  facet normal 9.995438e-001 -3.020303e-002 0.000000e+000
    outer loop
      vertex   -1.024973e+002 3.449057e+001 3.600000e+001
      vertex   -1.024973e+002 3.449057e+001 3.950000e+001
      vertex   -1.025000e+002 3.440000e+001 3.400000e+001
    endloop
  endfacet
  facet normal 9.927089e-001 -1.205367e-001 0.000000e+000
    outer loop
      vertex   -1.024973e+002 3.449057e+001 3.600000e+001
      vertex   -1.024754e+002 3.467038e+001 3.950000e+001
      vertex   -1.024973e+002 3.449057e+001 3.950000e+001
    endloop
  endfacet
  facet normal 9.981752e-001 -6.037848e-002 -7.819049e-004
    outer loop
      vertex   -1.024891e+002 3.458080e+001 4.300000e+001
      vertex   -1.025000e+002 3.440000e+001 4.300000e+001
      vertex   -1.024973e+002 3.449057e+001 3.950000e+001
    endloop
  endfacet
  facet normal 9.995438e-001 -3.020303e-002 2.384504e-017
    outer loop
      vertex   -1.024973e+002 3.449057e+001 3.950000e+001
      vertex   -1.025000e+002 3.440000e+001 4.300000e+001
      vertex   -1.025000e+002 3.440000e+001 3.400000e+001
    endloop
  endfacet
  facet normal -9.547200e-001 -2.975028e-001 1.368333e-003
    outer loop
      vertex   -9.959748e+001 3.493191e+001 3.400000e+001
      vertex   -9.954359e+001 3.475897e+001 3.400000e+001
      vertex   -9.956792e+001 3.484625e+001 3.600000e+001
    endloop
  endfacet
  facet normal -9.709409e-001 -2.393154e-001 -1.368333e-003
    outer loop
      vertex   -9.956792e+001 3.484625e+001 3.600000e+001
      vertex   -9.954359e+001 3.475897e+001 3.400000e+001
      vertex   -9.952457e+001 3.467038e+001 3.600000e+001
    endloop
  endfacet
  facet normal -9.927089e-001 -1.205367e-001 -0.000000e+000
    outer loop
      vertex   -9.952457e+001 3.467038e+001 3.950000e+001
      vertex   -9.952457e+001 3.467038e+001 3.600000e+001
      vertex   -9.950274e+001 3.449057e+001 3.950000e+001
    endloop
  endfacet
  facet normal -9.981752e-001 -6.037848e-002 -7.819049e-004
    outer loop
      vertex   -9.951094e+001 3.458080e+001 4.300000e+001
      vertex   -9.950274e+001 3.449057e+001 3.950000e+001
      vertex   -9.950000e+001 3.440000e+001 4.300000e+001
    endloop
  endfacet
  facet normal -9.927086e-001 -1.205366e-001 7.819049e-004
    outer loop
      vertex   -9.951094e+001 3.458080e+001 4.300000e+001
      vertex   -9.952457e+001 3.467038e+001 3.950000e+001
      vertex   -9.950274e+001 3.449057e+001 3.950000e+001
    endloop
  endfacet
  facet normal -9.709418e-001 -2.393157e-001 0.000000e+000
    outer loop
      vertex   -9.956792e+001 3.484625e+001 3.600000e+001
      vertex   -9.952457e+001 3.467038e+001 3.600000e+001
      vertex   -9.952457e+001 3.467038e+001 3.950000e+001
    endloop
  endfacet
  facet normal -8.854560e-001 -4.647232e-001 -0.000000e+000
    outer loop
      vertex   -9.971633e+001 3.517601e+001 3.950000e+001
      vertex   -9.971633e+001 3.517601e+001 3.600000e+001
      vertex   -9.963215e+001 3.501562e+001 3.950000e+001
    endloop
  endfacet
  facet normal -8.229839e-001 -5.680647e-001 -0.000000e+000
    outer loop
      vertex   -9.981922e+001 3.532508e+001 3.950000e+001
      vertex   -9.981922e+001 3.532508e+001 3.600000e+001
      vertex   -9.971633e+001 3.517601e+001 3.950000e+001
    endloop
  endfacet
  facet normal -7.485107e-001 -6.631227e-001 -0.000000e+000
    outer loop
      vertex   -9.993934e+001 3.546066e+001 3.950000e+001
      vertex   -9.993934e+001 3.546066e+001 3.600000e+001
      vertex   -9.981922e+001 3.532508e+001 3.950000e+001
    endloop
  endfacet
  facet normal -6.631227e-001 -7.485107e-001 -0.000000e+000
    outer loop
      vertex   -1.000749e+002 3.558077e+001 3.950000e+001
      vertex   -1.000749e+002 3.558077e+001 3.600000e+001
      vertex   -9.993934e+001 3.546066e+001 3.950000e+001
    endloop
  endfacet
  facet normal -5.680647e-001 -8.229839e-001 -0.000000e+000
    outer loop
      vertex   -1.002240e+002 3.568367e+001 3.950000e+001
      vertex   -1.002240e+002 3.568367e+001 3.600000e+001
      vertex   -1.000749e+002 3.558077e+001 3.950000e+001
    endloop
  endfacet
  facet normal -4.647232e-001 -8.854560e-001 -0.000000e+000
    outer loop
      vertex   -1.003844e+002 3.576785e+001 3.950000e+001
      vertex   -1.003844e+002 3.576785e+001 3.600000e+001
      vertex   -1.002240e+002 3.568367e+001 3.950000e+001
    endloop
  endfacet
  facet normal -3.546049e-001 -9.350162e-001 -0.000000e+000
    outer loop
      vertex   -1.005537e+002 3.583208e+001 3.950000e+001
      vertex   -1.005537e+002 3.583208e+001 3.600000e+001
      vertex   -1.003844e+002 3.576785e+001 3.950000e+001
    endloop
  endfacet
  facet normal -2.393157e-001 -9.709418e-001 -0.000000e+000
    outer loop
      vertex   -1.007296e+002 3.587543e+001 3.950000e+001
      vertex   -1.007296e+002 3.587543e+001 3.600000e+001
      vertex   -1.005537e+002 3.583208e+001 3.950000e+001
    endloop
  endfacet
  facet normal -1.205367e-001 -9.927089e-001 -0.000000e+000
    outer loop
      vertex   -1.009094e+002 3.589726e+001 3.950000e+001
      vertex   -1.009094e+002 3.589726e+001 3.600000e+001
      vertex   -1.007296e+002 3.587543e+001 3.950000e+001
    endloop
  endfacet
  facet normal 0.000000e+000 -1.000000e+000 0.000000e+000
    outer loop
      vertex   -1.010906e+002 3.589726e+001 3.950000e+001
      vertex   -1.010906e+002 3.589726e+001 3.600000e+001
      vertex   -1.009094e+002 3.589726e+001 3.950000e+001
    endloop
  endfacet
  facet normal 1.205367e-001 -9.927089e-001 0.000000e+000
    outer loop
      vertex   -1.012704e+002 3.587543e+001 3.950000e+001
      vertex   -1.012704e+002 3.587543e+001 3.600000e+001
      vertex   -1.010906e+002 3.589726e+001 3.950000e+001
    endloop
  endfacet
  facet normal 2.393157e-001 -9.709418e-001 0.000000e+000
    outer loop
      vertex   -1.014463e+002 3.583208e+001 3.950000e+001
      vertex   -1.014463e+002 3.583208e+001 3.600000e+001
      vertex   -1.012704e+002 3.587543e+001 3.950000e+001
    endloop
  endfacet
  facet normal 3.546049e-001 -9.350162e-001 0.000000e+000
    outer loop
      vertex   -1.016156e+002 3.576785e+001 3.950000e+001
      vertex   -1.016156e+002 3.576785e+001 3.600000e+001
      vertex   -1.014463e+002 3.583208e+001 3.950000e+001
    endloop
  endfacet
  facet normal 4.647232e-001 -8.854560e-001 0.000000e+000
    outer loop
      vertex   -1.017760e+002 3.568367e+001 3.950000e+001
      vertex   -1.017760e+002 3.568367e+001 3.600000e+001
      vertex   -1.016156e+002 3.576785e+001 3.950000e+001
    endloop
  endfacet
  facet normal 5.680647e-001 -8.229839e-001 0.000000e+000
    outer loop
      vertex   -1.019251e+002 3.558077e+001 3.950000e+001
      vertex   -1.019251e+002 3.558077e+001 3.600000e+001
      vertex   -1.017760e+002 3.568367e+001 3.950000e+001
    endloop
  endfacet
  facet normal 6.631227e-001 -7.485107e-001 0.000000e+000
    outer loop
      vertex   -1.020607e+002 3.546066e+001 3.950000e+001
      vertex   -1.020607e+002 3.546066e+001 3.600000e+001
      vertex   -1.019251e+002 3.558077e+001 3.950000e+001
    endloop
  endfacet
  facet normal 7.485107e-001 -6.631227e-001 0.000000e+000
    outer loop
      vertex   -1.021808e+002 3.532508e+001 3.950000e+001
      vertex   -1.021808e+002 3.532508e+001 3.600000e+001
      vertex   -1.020607e+002 3.546066e+001 3.950000e+001
    endloop
  endfacet
  facet normal 8.229839e-001 -5.680647e-001 0.000000e+000
    outer loop
      vertex   -1.022837e+002 3.517601e+001 3.950000e+001
      vertex   -1.022837e+002 3.517601e+001 3.600000e+001
      vertex   -1.021808e+002 3.532508e+001 3.950000e+001
    endloop
  endfacet
  facet normal 8.854560e-001 -4.647232e-001 0.000000e+000
    outer loop
      vertex   -1.023678e+002 3.501562e+001 3.950000e+001
      vertex   -1.023678e+002 3.501562e+001 3.600000e+001
      vertex   -1.022837e+002 3.517601e+001 3.950000e+001
    endloop
  endfacet
  facet normal 9.350162e-001 -3.546049e-001 0.000000e+000
    outer loop
      vertex   -1.024321e+002 3.484625e+001 3.950000e+001
      vertex   -1.024321e+002 3.484625e+001 3.600000e+001
      vertex   -1.023678e+002 3.501562e+001 3.950000e+001
    endloop
  endfacet
  facet normal 9.709418e-001 -2.393157e-001 0.000000e+000
    outer loop
      vertex   -1.024754e+002 3.467038e+001 3.950000e+001
      vertex   -1.024754e+002 3.467038e+001 3.600000e+001
      vertex   -1.024321e+002 3.484625e+001 3.950000e+001
    endloop
  endfacet
  facet normal -1.000000e+000 0.000000e+000 0.000000e+000
    outer loop
      vertex   -9.950000e+001 1.025000e+001 3.200000e+001
      vertex   -9.950000e+001 1.025000e+001 4.300000e+001
      vertex   -9.950000e+001 2.140000e+001 3.400000e+001
    endloop
  endfacet
  facet normal -1.000000e+000 0.000000e+000 0.000000e+000
    outer loop
      vertex   -9.950000e+001 2.140000e+001 3.200000e+001
      vertex   -9.950000e+001 1.025000e+001 3.200000e+001
      vertex   -9.950000e+001 2.140000e+001 3.400000e+001
    endloop
  endfacet
  facet normal -1.000000e+000 1.093143e-015 0.000000e+000
    outer loop
      vertex   -9.950000e+001 3.440000e+001 3.400000e+001
      vertex   -9.950000e+001 2.140000e+001 3.400000e+001
      vertex   -9.950000e+001 3.440000e+001 4.300000e+001
    endloop
  endfacet
  facet normal -1.000000e+000 5.884412e-016 7.290132e-016
    outer loop
      vertex   -9.950000e+001 3.440000e+001 4.300000e+001
      vertex   -9.950000e+001 2.140000e+001 3.400000e+001
      vertex   -9.950000e+001 1.025000e+001 4.300000e+001
    endloop
  endfacet
  facet normal 7.071068e-001 7.071068e-001 -3.349531e-015
    outer loop
      vertex   -9.660000e+001 2.140000e+001 4.300000e+001
      vertex   -9.360000e+001 1.840000e+001 4.300000e+001
      vertex   -9.660000e+001 2.140000e+001 3.400000e+001
    endloop
  endfacet
  facet normal 7.071068e-001 7.071068e-001 0.000000e+000
    outer loop
      vertex   -9.660000e+001 2.140000e+001 3.400000e+001
      vertex   -9.360000e+001 1.840000e+001 4.300000e+001
      vertex   -9.360000e+001 1.840000e+001 3.200000e+001
    endloop
  endfacet
  facet normal 7.071068e-001 7.071068e-001 -0.000000e+000
    outer loop
      vertex   -9.660000e+001 2.140000e+001 3.200000e+001
      vertex   -9.660000e+001 2.140000e+001 3.400000e+001
      vertex   -9.360000e+001 1.840000e+001 3.200000e+001
    endloop
  endfacet
  facet normal 1.000000e+000 0.000000e+000 -4.736952e-015
    outer loop
      vertex   -9.660000e+001 2.140000e+001 4.300000e+001
      vertex   -9.660000e+001 2.140000e+001 3.400000e+001
      vertex   -9.660000e+001 4.190000e+001 4.300000e+001
    endloop
  endfacet
  facet normal 1.000000e+000 0.000000e+000 -4.736952e-015
    outer loop
      vertex   -9.660000e+001 4.190000e+001 4.300000e+001
      vertex   -9.660000e+001 2.140000e+001 3.400000e+001
      vertex   -9.660000e+001 4.190000e+001 3.400000e+001
    endloop
  endfacet
  facet normal -7.071068e-001 7.071068e-001 0.000000e+000
    outer loop
      vertex   -1.054000e+002 2.140000e+001 3.200000e+001
      vertex   -1.084000e+002 1.840000e+001 3.200000e+001
      vertex   -1.054000e+002 2.140000e+001 3.400000e+001
    endloop
  endfacet
  facet normal -7.071068e-001 7.071068e-001 0.000000e+000
    outer loop
      vertex   -1.054000e+002 2.140000e+001 3.400000e+001
      vertex   -1.084000e+002 1.840000e+001 3.200000e+001
      vertex   -1.084000e+002 1.840000e+001 4.300000e+001
    endloop
  endfacet
  facet normal -7.071068e-001 7.071068e-001 3.349530e-015
    outer loop
      vertex   -1.054000e+002 2.140000e+001 4.300000e+001
      vertex   -1.054000e+002 2.140000e+001 3.400000e+001
      vertex   -1.084000e+002 1.840000e+001 4.300000e+001
    endloop
  endfacet
  facet normal -1.127590e-015 -1.000000e+000 1.614870e-016
    outer loop
      vertex   -1.052493e+002 1.400000e+001 4.300000e+001
      vertex   -1.084000e+002 1.400000e+001 4.300000e+001
      vertex   -1.052493e+002 1.400000e+001 3.200000e+001
    endloop
  endfacet
  facet normal -1.691385e-015 -1.000000e+000 -0.000000e+000
    outer loop
      vertex   -1.052493e+002 1.400000e+001 3.200000e+001
      vertex   -1.084000e+002 1.400000e+001 4.300000e+001
      vertex   -1.084000e+002 1.400000e+001 3.200000e+001
    endloop
  endfacet
  facet normal 0.000000e+000 -1.000000e+000 1.614870e-016
    outer loop
      vertex   -9.675071e+001 1.400000e+001 3.200000e+001
      vertex   -9.360000e+001 1.400000e+001 3.200000e+001
      vertex   -9.675071e+001 1.400000e+001 4.300000e+001
    endloop
  endfacet
  facet normal -5.637956e-016 -1.000000e+000 0.000000e+000
    outer loop
      vertex   -9.675071e+001 1.400000e+001 4.300000e+001
      vertex   -9.360000e+001 1.400000e+001 3.200000e+001
      vertex   -9.360000e+001 1.400000e+001 4.300000e+001
    endloop
  endfacet
  facet normal -1.000000e+000 -0.000000e+000 -0.000000e+000
    outer loop
      vertex   -1.084000e+002 1.840000e+001 4.300000e+001
      vertex   -1.084000e+002 1.840000e+001 3.200000e+001
      vertex   -1.084000e+002 1.400000e+001 4.300000e+001
    endloop
  endfacet
  facet normal -1.000000e+000 -0.000000e+000 -0.000000e+000
    outer loop
      vertex   -1.084000e+002 1.400000e+001 4.300000e+001
      vertex   -1.084000e+002 1.840000e+001 3.200000e+001
      vertex   -1.084000e+002 1.400000e+001 3.200000e+001
    endloop
  endfacet
  facet normal 1.000000e+000 0.000000e+000 -0.000000e+000
    outer loop
      vertex   -9.360000e+001 1.840000e+001 3.200000e+001
      vertex   -9.360000e+001 1.840000e+001 4.300000e+001
      vertex   -9.360000e+001 1.400000e+001 3.200000e+001
    endloop
  endfacet
  facet normal 1.000000e+000 0.000000e+000 -0.000000e+000
    outer loop
      vertex   -9.360000e+001 1.400000e+001 3.200000e+001
      vertex   -9.360000e+001 1.840000e+001 4.300000e+001
      vertex   -9.360000e+001 1.400000e+001 4.300000e+001
    endloop
  endfacet
  facet normal -1.000000e+000 0.000000e+000 4.736952e-015
    outer loop
      vertex   -1.054000e+002 2.140000e+001 3.400000e+001
      vertex   -1.054000e+002 2.140000e+001 4.300000e+001
      vertex   -1.054000e+002 4.190000e+001 3.400000e+001
    endloop
  endfacet
  facet normal -1.000000e+000 0.000000e+000 4.736952e-015
    outer loop
      vertex   -1.054000e+002 4.190000e+001 3.400000e+001
      vertex   -1.054000e+002 2.140000e+001 4.300000e+001
      vertex   -1.054000e+002 4.190000e+001 4.300000e+001
    endloop
  endfacet
  facet normal -9.985808e-001 5.325764e-002 -1.316939e-015
    outer loop
      vertex   -1.054493e+002 1.025000e+001 4.300000e+001
      vertex   -1.052493e+002 1.400000e+001 4.300000e+001
      vertex   -1.054493e+002 1.025000e+001 3.200000e+001
    endloop
  endfacet
  facet normal -9.985808e-001 5.325764e-002 -1.298663e-015
    outer loop
      vertex   -1.054493e+002 1.025000e+001 3.200000e+001
      vertex   -1.052493e+002 1.400000e+001 4.300000e+001
      vertex   -1.052493e+002 1.400000e+001 3.200000e+001
    endloop
  endfacet
  facet normal 9.985808e-001 5.325764e-002 -8.600416e-018
    outer loop
      vertex   -9.655071e+001 1.025000e+001 4.300000e+001
      vertex   -9.655071e+001 1.025000e+001 3.200000e+001
      vertex   -9.675071e+001 1.400000e+001 4.300000e+001
    endloop
  endfacet
  facet normal 9.985808e-001 5.325764e-002 -8.062890e-018
    outer loop
      vertex   -9.675071e+001 1.400000e+001 4.300000e+001
      vertex   -9.655071e+001 1.025000e+001 3.200000e+001
      vertex   -9.675071e+001 1.400000e+001 3.200000e+001
    endloop
  endfacet
endsolid
