solid ascii
  facet normal -1.000000e+000 0.000000e+000 -0.000000e+000
    outer loop
      vertex   -1.111500e+002 4.810001e+001 3.550000e+001
      vertex   -1.111500e+002 4.940000e+001 3.550000e+001
      vertex   -1.111500e+002 4.810001e+001 3.288755e+001
    endloop
  endfacet
  facet normal -1.000000e+000 0.000000e+000 0.000000e+000
    outer loop
      vertex   -1.111500e+002 4.810001e+001 3.288755e+001
      vertex   -1.111500e+002 4.940000e+001 3.550000e+001
      vertex   -1.111500e+002 4.940000e+001 2.300000e+001
    endloop
  endfacet
  facet normal -1.000000e+000 0.000000e+000 -0.000000e+000
    outer loop
      vertex   -1.111500e+002 4.385001e+001 3.531612e+001
      vertex   -1.111500e+002 4.940000e+001 2.300000e+001
      vertex   -1.111500e+002 2.840000e+001 2.200000e+001
    endloop
  endfacet
  facet normal -1.000000e+000 5.103382e-016 -5.921189e-016
    outer loop
      vertex   -1.111500e+002 2.840000e+001 4.600000e+001
      vertex   -1.111500e+002 4.385001e+001 3.531612e+001
      vertex   -1.111500e+002 2.840000e+001 2.200000e+001
    endloop
  endfacet
  facet normal -1.000000e+000 9.197961e-016 0.000000e+000
    outer loop
      vertex   -1.111500e+002 2.840000e+001 4.600000e+001
      vertex   -1.111500e+002 4.385001e+001 4.168388e+001
      vertex   -1.111500e+002 4.385001e+001 3.531612e+001
    endloop
  endfacet
  facet normal -1.000000e+000 6.767074e-016 -8.701619e-016
    outer loop
      vertex   -1.111500e+002 2.840000e+001 4.600000e+001
      vertex   -1.111500e+002 4.940000e+001 4.600000e+001
      vertex   -1.111500e+002 4.385001e+001 4.168388e+001
    endloop
  endfacet
  facet normal -1.000000e+000 0.000000e+000 -0.000000e+000
    outer loop
      vertex   -1.111500e+002 4.385001e+001 4.168388e+001
      vertex   -1.111500e+002 4.940000e+001 4.600000e+001
      vertex   -1.111500e+002 4.810001e+001 4.411245e+001
    endloop
  endfacet
  facet normal -1.000000e+000 0.000000e+000 0.000000e+000
    outer loop
      vertex   -1.111500e+002 4.810001e+001 4.411245e+001
      vertex   -1.111500e+002 4.940000e+001 4.600000e+001
      vertex   -1.111500e+002 4.940000e+001 4.150000e+001
    endloop
  endfacet
  facet normal -1.000000e+000 0.000000e+000 0.000000e+000
    outer loop
      vertex   -1.111500e+002 4.810001e+001 4.150000e+001
      vertex   -1.111500e+002 4.810001e+001 4.411245e+001
      vertex   -1.111500e+002 4.940000e+001 4.150000e+001
    endloop
  endfacet
  facet normal -1.000000e+000 -0.000000e+000 -0.000000e+000
    outer loop
      vertex   -1.111500e+002 5.240000e+001 2.300000e+001
      vertex   -1.111500e+002 5.240000e+001 2.200000e+001
      vertex   -1.111500e+002 4.940000e+001 2.300000e+001
    endloop
  endfacet
  facet normal -1.000000e+000 0.000000e+000 -0.000000e+000
    outer loop
      vertex   -1.111500e+002 4.940000e+001 2.300000e+001
      vertex   -1.111500e+002 5.240000e+001 2.200000e+001
      vertex   -1.111500e+002 2.840000e+001 2.200000e+001
    endloop
  endfacet
  facet normal -1.000000e+000 0.000000e+000 0.000000e+000
    outer loop
      vertex   -1.111500e+002 4.385001e+001 3.531612e+001
      vertex   -1.111500e+002 4.810001e+001 3.288755e+001
      vertex   -1.111500e+002 4.940000e+001 2.300000e+001
    endloop
  endfacet
  facet normal 1.000000e+000 0.000000e+000 0.000000e+000
    outer loop
      vertex   -9.085000e+001 4.940000e+001 3.550000e+001
      vertex   -9.085000e+001 4.810001e+001 3.288755e+001
      vertex   -9.085000e+001 4.940000e+001 2.300000e+001
    endloop
  endfacet
  facet normal 1.000000e+000 0.000000e+000 0.000000e+000
    outer loop
      vertex   -9.085000e+001 4.940000e+001 3.550000e+001
      vertex   -9.085000e+001 4.810001e+001 3.550000e+001
      vertex   -9.085000e+001 4.810001e+001 3.288755e+001
    endloop
  endfacet
  facet normal 1.000000e+000 0.000000e+000 0.000000e+000
    outer loop
      vertex   -9.085000e+001 4.810001e+001 3.288755e+001
      vertex   -9.085000e+001 4.385001e+001 3.531612e+001
      vertex   -9.085000e+001 4.940000e+001 2.300000e+001
    endloop
  endfacet
  facet normal 1.000000e+000 0.000000e+000 0.000000e+000
    outer loop
      vertex   -9.085000e+001 4.940000e+001 2.300000e+001
      vertex   -9.085000e+001 4.385001e+001 3.531612e+001
      vertex   -9.085000e+001 2.840000e+001 2.200000e+001
    endloop
  endfacet
  facet normal 1.000000e+000 0.000000e+000 0.000000e+000
    outer loop
      vertex   -9.085000e+001 5.240000e+001 2.200000e+001
      vertex   -9.085000e+001 4.940000e+001 2.300000e+001
      vertex   -9.085000e+001 2.840000e+001 2.200000e+001
    endloop
  endfacet
  facet normal 1.000000e+000 0.000000e+000 -0.000000e+000
    outer loop
      vertex   -9.085000e+001 5.240000e+001 2.200000e+001
      vertex   -9.085000e+001 5.240000e+001 2.300000e+001
      vertex   -9.085000e+001 4.940000e+001 2.300000e+001
    endloop
  endfacet
  facet normal 1.000000e+000 -1.020676e-015 1.184238e-015
    outer loop
      vertex   -9.085000e+001 2.840000e+001 2.200000e+001
      vertex   -9.085000e+001 4.385001e+001 3.531612e+001
      vertex   -9.085000e+001 2.840000e+001 4.600000e+001
    endloop
  endfacet
  facet normal 1.000000e+000 -1.839592e-015 0.000000e+000
    outer loop
      vertex   -9.085000e+001 2.840000e+001 4.600000e+001
      vertex   -9.085000e+001 4.385001e+001 3.531612e+001
      vertex   -9.085000e+001 4.385001e+001 4.168388e+001
    endloop
  endfacet
  facet normal 1.000000e+000 -0.000000e+000 0.000000e+000
    outer loop
      vertex   -9.085000e+001 4.940000e+001 4.600000e+001
      vertex   -9.085000e+001 4.385001e+001 4.168388e+001
      vertex   -9.085000e+001 4.810001e+001 4.411245e+001
    endloop
  endfacet
  facet normal 1.000000e+000 0.000000e+000 0.000000e+000
    outer loop
      vertex   -9.085000e+001 4.940000e+001 4.150000e+001
      vertex   -9.085000e+001 4.810001e+001 4.411245e+001
      vertex   -9.085000e+001 4.810001e+001 4.150000e+001
    endloop
  endfacet
  facet normal 1.000000e+000 0.000000e+000 -0.000000e+000
    outer loop
      vertex   -9.085000e+001 4.940000e+001 4.150000e+001
      vertex   -9.085000e+001 4.940000e+001 4.600000e+001
      vertex   -9.085000e+001 4.810001e+001 4.411245e+001
    endloop
  endfacet
  facet normal 1.000000e+000 -1.353415e-015 1.740324e-015
    outer loop
      vertex   -9.085000e+001 2.840000e+001 4.600000e+001
      vertex   -9.085000e+001 4.385001e+001 4.168388e+001
      vertex   -9.085000e+001 4.940000e+001 4.600000e+001
    endloop
  endfacet
  facet normal 7.723287e-016 0.000000e+000 1.000000e+000
    outer loop
      vertex   -9.640000e+001 4.650322e+001 3.380000e+001
      vertex   -1.056000e+002 4.650322e+001 3.380000e+001
      vertex   -9.640000e+001 2.840000e+001 3.380000e+001
    endloop
  endfacet
  facet normal 0.000000e+000 -3.924953e-016 1.000000e+000
    outer loop
      vertex   -9.640000e+001 2.840000e+001 3.380000e+001
      vertex   -1.056000e+002 4.650322e+001 3.380000e+001
      vertex   -1.056000e+002 2.840000e+001 3.380000e+001
    endloop
  endfacet
  facet normal 0.000000e+000 3.924953e-016 -1.000000e+000
    outer loop
      vertex   -1.056000e+002 4.650322e+001 4.320000e+001
      vertex   -9.640000e+001 4.650322e+001 4.320000e+001
      vertex   -1.056000e+002 2.840000e+001 4.320000e+001
    endloop
  endfacet
  facet normal 0.000000e+000 3.924953e-016 -1.000000e+000
    outer loop
      vertex   -1.056000e+002 2.840000e+001 4.320000e+001
      vertex   -9.640000e+001 4.650322e+001 4.320000e+001
      vertex   -9.640000e+001 2.840000e+001 4.320000e+001
    endloop
  endfacet
  facet normal -3.500210e-016 -1.000000e+000 -2.719831e-015
    outer loop
      vertex   -1.111500e+002 4.810001e+001 3.288755e+001
      vertex   -9.085000e+001 4.810001e+001 3.288755e+001
      vertex   -1.111500e+002 4.810001e+001 3.550000e+001
    endloop
  endfacet
  facet normal 0.000000e+000 -1.000000e+000 0.000000e+000
    outer loop
      vertex   -1.111500e+002 4.810001e+001 3.550000e+001
      vertex   -9.085000e+001 4.810001e+001 3.288755e+001
      vertex   -9.085000e+001 4.810001e+001 3.550000e+001
    endloop
  endfacet
  facet normal 1.111575e-015 4.961389e-001 8.682431e-001
    outer loop
      vertex   -9.640000e+001 4.385001e+001 3.531612e+001
      vertex   -9.085000e+001 4.385001e+001 3.531612e+001
      vertex   -9.640000e+001 4.650322e+001 3.380000e+001
    endloop
  endfacet
  facet normal 1.961602e-016 4.961389e-001 8.682431e-001
    outer loop
      vertex   -9.640000e+001 4.650322e+001 3.380000e+001
      vertex   -9.085000e+001 4.385001e+001 3.531612e+001
      vertex   -9.085000e+001 4.810001e+001 3.288755e+001
    endloop
  endfacet
  facet normal -1.248984e-016 4.961389e-001 8.682431e-001
    outer loop
      vertex   -1.111500e+002 4.810001e+001 3.288755e+001
      vertex   -9.640000e+001 4.650322e+001 3.380000e+001
      vertex   -9.085000e+001 4.810001e+001 3.288755e+001
    endloop
  endfacet
  facet normal -4.789780e-016 4.961389e-001 8.682431e-001
    outer loop
      vertex   -1.111500e+002 4.810001e+001 3.288755e+001
      vertex   -1.056000e+002 4.650322e+001 3.380000e+001
      vertex   -9.640000e+001 4.650322e+001 3.380000e+001
    endloop
  endfacet
  facet normal 2.942403e-016 4.961389e-001 8.682431e-001
    outer loop
      vertex   -1.111500e+002 4.810001e+001 3.288755e+001
      vertex   -1.111500e+002 4.385001e+001 3.531612e+001
      vertex   -1.056000e+002 4.650322e+001 3.380000e+001
    endloop
  endfacet
  facet normal -0.000000e+000 4.961389e-001 8.682431e-001
    outer loop
      vertex   -1.056000e+002 4.650322e+001 3.380000e+001
      vertex   -1.111500e+002 4.385001e+001 3.531612e+001
      vertex   -1.056000e+002 4.385001e+001 3.531612e+001
    endloop
  endfacet
  facet normal -0.000000e+000 1.000000e+000 0.000000e+000
    outer loop
      vertex   -9.640000e+001 4.385001e+001 4.168388e+001
      vertex   -9.085000e+001 4.385001e+001 4.168388e+001
      vertex   -9.640000e+001 4.385001e+001 3.531612e+001
    endloop
  endfacet
  facet normal -0.000000e+000 1.000000e+000 0.000000e+000
    outer loop
      vertex   -9.640000e+001 4.385001e+001 3.531612e+001
      vertex   -9.085000e+001 4.385001e+001 4.168388e+001
      vertex   -9.085000e+001 4.385001e+001 3.531612e+001
    endloop
  endfacet
  facet normal 0.000000e+000 4.961389e-001 -8.682431e-001
    outer loop
      vertex   -1.056000e+002 4.385001e+001 4.168388e+001
      vertex   -1.111500e+002 4.385001e+001 4.168388e+001
      vertex   -1.056000e+002 4.650322e+001 4.320000e+001
    endloop
  endfacet
  facet normal 9.808010e-016 4.961389e-001 -8.682431e-001
    outer loop
      vertex   -1.056000e+002 4.650322e+001 4.320000e+001
      vertex   -1.111500e+002 4.385001e+001 4.168388e+001
      vertex   -1.111500e+002 4.810001e+001 4.411245e+001
    endloop
  endfacet
  facet normal 1.724788e-016 4.961389e-001 -8.682431e-001
    outer loop
      vertex   -9.085000e+001 4.810001e+001 4.411245e+001
      vertex   -1.056000e+002 4.650322e+001 4.320000e+001
      vertex   -1.111500e+002 4.810001e+001 4.411245e+001
    endloop
  endfacet
  facet normal 0.000000e+000 4.961389e-001 -8.682431e-001
    outer loop
      vertex   -9.085000e+001 4.810001e+001 4.411245e+001
      vertex   -9.640000e+001 4.650322e+001 4.320000e+001
      vertex   -1.056000e+002 4.650322e+001 4.320000e+001
    endloop
  endfacet
  facet normal -5.884806e-016 4.961389e-001 -8.682431e-001
    outer loop
      vertex   -9.085000e+001 4.810001e+001 4.411245e+001
      vertex   -9.085000e+001 4.385001e+001 4.168388e+001
      vertex   -9.640000e+001 4.650322e+001 4.320000e+001
    endloop
  endfacet
  facet normal 0.000000e+000 4.961389e-001 -8.682431e-001
    outer loop
      vertex   -9.640000e+001 4.650322e+001 4.320000e+001
      vertex   -9.085000e+001 4.385001e+001 4.168388e+001
      vertex   -9.640000e+001 4.385001e+001 4.168388e+001
    endloop
  endfacet
  facet normal -3.500210e-016 -1.000000e+000 0.000000e+000
    outer loop
      vertex   -9.085000e+001 4.810001e+001 4.411245e+001
      vertex   -1.111500e+002 4.810001e+001 4.411245e+001
      vertex   -9.085000e+001 4.810001e+001 4.150000e+001
    endloop
  endfacet
  facet normal 0.000000e+000 -1.000000e+000 2.719831e-015
    outer loop
      vertex   -9.085000e+001 4.810001e+001 4.150000e+001
      vertex   -1.111500e+002 4.810001e+001 4.411245e+001
      vertex   -1.111500e+002 4.810001e+001 4.150000e+001
    endloop
  endfacet
  facet normal -0.000000e+000 0.000000e+000 1.000000e+000
    outer loop
      vertex   -1.111500e+002 4.940000e+001 3.550000e+001
      vertex   -1.111500e+002 4.810001e+001 3.550000e+001
      vertex   -9.085000e+001 4.940000e+001 3.550000e+001
    endloop
  endfacet
  facet normal -0.000000e+000 0.000000e+000 1.000000e+000
    outer loop
      vertex   -9.085000e+001 4.940000e+001 3.550000e+001
      vertex   -1.111500e+002 4.810001e+001 3.550000e+001
      vertex   -9.085000e+001 4.810001e+001 3.550000e+001
    endloop
  endfacet
  facet normal 0.000000e+000 1.000000e+000 -0.000000e+000
    outer loop
      vertex   -1.056000e+002 4.385001e+001 3.531612e+001
      vertex   -1.111500e+002 4.385001e+001 3.531612e+001
      vertex   -1.056000e+002 4.385001e+001 4.168388e+001
    endloop
  endfacet
  facet normal 0.000000e+000 1.000000e+000 -0.000000e+000
    outer loop
      vertex   -1.056000e+002 4.385001e+001 4.168388e+001
      vertex   -1.111500e+002 4.385001e+001 3.531612e+001
      vertex   -1.111500e+002 4.385001e+001 4.168388e+001
    endloop
  endfacet
  facet normal 0.000000e+000 0.000000e+000 -1.000000e+000
    outer loop
      vertex   -1.111500e+002 4.810001e+001 4.150000e+001
      vertex   -1.111500e+002 4.940000e+001 4.150000e+001
      vertex   -9.085000e+001 4.810001e+001 4.150000e+001
    endloop
  endfacet
  facet normal 0.000000e+000 0.000000e+000 -1.000000e+000
    outer loop
      vertex   -9.085000e+001 4.810001e+001 4.150000e+001
      vertex   -1.111500e+002 4.940000e+001 4.150000e+001
      vertex   -9.085000e+001 4.940000e+001 4.150000e+001
    endloop
  endfacet
  facet normal 3.500210e-016 1.000000e+000 0.000000e+000
    outer loop
      vertex   -1.111500e+002 4.940000e+001 4.600000e+001
      vertex   -9.085000e+001 4.940000e+001 4.600000e+001
      vertex   -1.111500e+002 4.940000e+001 4.150000e+001
    endloop
  endfacet
  facet normal 3.500210e-016 1.000000e+000 0.000000e+000
    outer loop
      vertex   -1.111500e+002 4.940000e+001 4.150000e+001
      vertex   -9.085000e+001 4.940000e+001 4.600000e+001
      vertex   -9.085000e+001 4.940000e+001 4.150000e+001
    endloop
  endfacet
  facet normal 3.500210e-016 1.000000e+000 8.010859e-008
    outer loop
      vertex   -1.111500e+002 4.940000e+001 3.550000e+001
      vertex   -9.085000e+001 4.940000e+001 3.550000e+001
      vertex   -1.111500e+002 4.940000e+001 2.300000e+001
    endloop
  endfacet
  facet normal 2.670448e-023 1.000000e+000 8.010859e-008
    outer loop
      vertex   -1.111500e+002 4.940000e+001 2.300000e+001
      vertex   -9.085000e+001 4.940000e+001 3.550000e+001
      vertex   -9.085000e+001 4.940000e+001 2.300000e+001
    endloop
  endfacet
  facet normal 3.500210e-016 -2.368618e-031 1.000000e+000
    outer loop
      vertex   -1.111500e+002 2.840000e+001 4.600000e+001
      vertex   -9.085000e+001 2.840000e+001 4.600000e+001
      vertex   -1.111500e+002 4.940000e+001 4.600000e+001
    endloop
  endfacet
  facet normal -1.184309e-031 -3.383537e-016 1.000000e+000
    outer loop
      vertex   -1.111500e+002 4.940000e+001 4.600000e+001
      vertex   -9.085000e+001 2.840000e+001 4.600000e+001
      vertex   -9.085000e+001 4.940000e+001 4.600000e+001
    endloop
  endfacet
  facet normal 0.000000e+000 -1.000000e+000 -0.000000e+000
    outer loop
      vertex   -9.085000e+001 2.840000e+001 4.600000e+001
      vertex   -9.640000e+001 2.840000e+001 3.380000e+001
      vertex   -9.085000e+001 2.840000e+001 2.200000e+001
    endloop
  endfacet
  facet normal 0.000000e+000 -1.000000e+000 -0.000000e+000
    outer loop
      vertex   -9.085000e+001 2.840000e+001 4.600000e+001
      vertex   -9.640000e+001 2.840000e+001 4.320000e+001
      vertex   -9.640000e+001 2.840000e+001 3.380000e+001
    endloop
  endfacet
  facet normal -3.500210e-016 -1.000000e+000 6.937920e-016
    outer loop
      vertex   -9.085000e+001 2.840000e+001 4.600000e+001
      vertex   -1.111500e+002 2.840000e+001 4.600000e+001
      vertex   -9.640000e+001 2.840000e+001 4.320000e+001
    endloop
  endfacet
  facet normal 0.000000e+000 -1.000000e+000 2.537654e-015
    outer loop
      vertex   -9.640000e+001 2.840000e+001 4.320000e+001
      vertex   -1.111500e+002 2.840000e+001 4.600000e+001
      vertex   -1.056000e+002 2.840000e+001 4.320000e+001
    endloop
  endfacet
  facet normal -1.280257e-015 -1.000000e+000 0.000000e+000
    outer loop
      vertex   -1.056000e+002 2.840000e+001 4.320000e+001
      vertex   -1.111500e+002 2.840000e+001 4.600000e+001
      vertex   -1.056000e+002 2.840000e+001 3.380000e+001
    endloop
  endfacet
  facet normal -1.280257e-015 -1.000000e+000 -7.580645e-031
    outer loop
      vertex   -1.056000e+002 2.840000e+001 3.380000e+001
      vertex   -1.111500e+002 2.840000e+001 4.600000e+001
      vertex   -1.111500e+002 2.840000e+001 2.200000e+001
    endloop
  endfacet
  facet normal -3.500210e-016 -1.000000e+000 -4.375262e-016
    outer loop
      vertex   -9.085000e+001 2.840000e+001 2.200000e+001
      vertex   -1.056000e+002 2.840000e+001 3.380000e+001
      vertex   -1.111500e+002 2.840000e+001 2.200000e+001
    endloop
  endfacet
  facet normal 0.000000e+000 -1.000000e+000 0.000000e+000
    outer loop
      vertex   -9.085000e+001 2.840000e+001 2.200000e+001
      vertex   -9.640000e+001 2.840000e+001 3.380000e+001
      vertex   -1.056000e+002 2.840000e+001 3.380000e+001
    endloop
  endfacet
  facet normal 0.000000e+000 1.000000e+000 0.000000e+000
    outer loop
      vertex   -1.111500e+002 5.240000e+001 2.300000e+001
      vertex   -9.085000e+001 5.240000e+001 2.300000e+001
      vertex   -1.111500e+002 5.240000e+001 2.200000e+001
    endloop
  endfacet
  facet normal -0.000000e+000 1.000000e+000 0.000000e+000
    outer loop
      vertex   -1.111500e+002 5.240000e+001 2.200000e+001
      vertex   -9.085000e+001 5.240000e+001 2.300000e+001
      vertex   -9.085000e+001 5.240000e+001 2.200000e+001
    endloop
  endfacet
  facet normal -1.750105e-016 0.000000e+000 -1.000000e+000
    outer loop
      vertex   -9.085000e+001 2.840000e+001 2.200000e+001
      vertex   -1.111500e+002 2.840000e+001 2.200000e+001
      vertex   -9.085000e+001 5.240000e+001 2.200000e+001
    endloop
  endfacet
  facet normal -3.500210e-016 1.480297e-016 -1.000000e+000
    outer loop
      vertex   -9.085000e+001 5.240000e+001 2.200000e+001
      vertex   -1.111500e+002 2.840000e+001 2.200000e+001
      vertex   -1.111500e+002 5.240000e+001 2.200000e+001
    endloop
  endfacet
  facet normal 3.500210e-016 0.000000e+000 1.000000e+000
    outer loop
      vertex   -1.111500e+002 4.940000e+001 2.300000e+001
      vertex   -9.085000e+001 4.940000e+001 2.300000e+001
      vertex   -1.111500e+002 5.240000e+001 2.300000e+001
    endloop
  endfacet
  facet normal 3.500210e-016 -0.000000e+000 1.000000e+000
    outer loop
      vertex   -1.111500e+002 5.240000e+001 2.300000e+001
      vertex   -9.085000e+001 4.940000e+001 2.300000e+001
      vertex   -9.085000e+001 5.240000e+001 2.300000e+001
    endloop
  endfacet
  facet normal -1.000000e+000 0.000000e+000 0.000000e+000
    outer loop
      vertex   -9.640000e+001 4.650322e+001 3.380000e+001
      vertex   -9.640000e+001 2.840000e+001 3.380000e+001
      vertex   -9.640000e+001 4.385001e+001 3.531612e+001
    endloop
  endfacet
  facet normal -1.000000e+000 -0.000000e+000 0.000000e+000
    outer loop
      vertex   -9.640000e+001 4.385001e+001 3.531612e+001
      vertex   -9.640000e+001 2.840000e+001 3.380000e+001
      vertex   -9.640000e+001 2.840000e+001 4.320000e+001
    endloop
  endfacet
  facet normal -1.000000e+000 0.000000e+000 0.000000e+000
    outer loop
      vertex   -9.640000e+001 4.385001e+001 4.168388e+001
      vertex   -9.640000e+001 2.840000e+001 4.320000e+001
      vertex   -9.640000e+001 4.650322e+001 4.320000e+001
    endloop
  endfacet
  facet normal -1.000000e+000 -0.000000e+000 -0.000000e+000
    outer loop
      vertex   -9.640000e+001 4.385001e+001 4.168388e+001
      vertex   -9.640000e+001 4.385001e+001 3.531612e+001
      vertex   -9.640000e+001 2.840000e+001 4.320000e+001
    endloop
  endfacet
  facet normal 1.000000e+000 1.569981e-015 1.599888e-014
    outer loop
      vertex   -1.056000e+002 4.650322e+001 4.320000e+001
      vertex   -1.056000e+002 2.840000e+001 4.320000e+001
      vertex   -1.056000e+002 4.385001e+001 4.168388e+001
    endloop
  endfacet
  facet normal 1.000000e+000 0.000000e+000 0.000000e+000
    outer loop
      vertex   -1.056000e+002 4.385001e+001 4.168388e+001
      vertex   -1.056000e+002 2.840000e+001 4.320000e+001
      vertex   -1.056000e+002 2.840000e+001 3.380000e+001
    endloop
  endfacet
  facet normal 1.000000e+000 -7.849907e-016 7.999440e-015
    outer loop
      vertex   -1.056000e+002 4.385001e+001 3.531612e+001
      vertex   -1.056000e+002 2.840000e+001 3.380000e+001
      vertex   -1.056000e+002 4.650322e+001 3.380000e+001
    endloop
  endfacet
  facet normal 1.000000e+000 0.000000e+000 -0.000000e+000
    outer loop
      vertex   -1.056000e+002 4.385001e+001 3.531612e+001
      vertex   -1.056000e+002 4.385001e+001 4.168388e+001
      vertex   -1.056000e+002 2.840000e+001 3.380000e+001
    endloop
  endfacet
endsolid
